<svg width="20" height="20" viewBox="0 0 20 20" fill="none" xmlns="http://www.w3.org/2000/svg">
<mask id="mask0_294678_9865" style="mask-type:alpha" maskUnits="userSpaceOnUse" x="0" y="0" width="20" height="20">
<rect width="20" height="20" fill="#D9D9D9"/>
</mask>
<g mask="url(#mask0_294678_9865)">
<path d="M9.16764 13.4793V4.16683C9.16764 3.93072 9.2475 3.7328 9.40723 3.57308C9.56695 3.41336 9.76487 3.3335 10.001 3.3335C10.2371 3.3335 10.435 3.41336 10.5947 3.57308C10.7544 3.7328 10.8343 3.93072 10.8343 4.16683V13.4793L14.9176 9.396C15.0843 9.22933 15.2788 9.14947 15.501 9.15641C15.7232 9.16336 15.9176 9.25016 16.0843 9.41683C16.2371 9.5835 16.3169 9.77794 16.3239 10.0002C16.3308 10.2224 16.251 10.4168 16.0843 10.5835L10.5843 16.0835C10.501 16.1668 10.4107 16.2259 10.3135 16.2606C10.2163 16.2953 10.1121 16.3127 10.001 16.3127C9.88987 16.3127 9.7857 16.2953 9.68848 16.2606C9.59125 16.2259 9.50098 16.1668 9.41764 16.0835L3.91764 10.5835C3.76487 10.4307 3.68848 10.2397 3.68848 10.0106C3.68848 9.78141 3.76487 9.5835 3.91764 9.41683C4.08431 9.25016 4.28223 9.16683 4.51139 9.16683C4.74056 9.16683 4.93848 9.25016 5.10514 9.41683L9.16764 13.4793Z" fill="white"/>
</g>
</svg>
