<svg width="20" height="18" viewBox="0 0 20 18" fill="none" xmlns="http://www.w3.org/2000/svg">
<mask id="mask0_294678_9860" style="mask-type:alpha" maskUnits="userSpaceOnUse" x="0" y="-1" width="20" height="20">
<rect y="-1" width="20" height="20" fill="#D9D9D9"/>
</mask>
<g mask="url(#mask0_294678_9860)">
<path d="M9.16676 5.52083L5.08342 9.60417C4.91676 9.77083 4.72231 9.85069 4.50009 9.84375C4.27787 9.83681 4.08342 9.75 3.91676 9.58333C3.76398 9.41667 3.68412 9.22222 3.67717 9C3.67023 8.77778 3.75009 8.58333 3.91676 8.41667L9.41676 2.91667C9.50009 2.83333 9.59037 2.77431 9.68759 2.73958C9.78481 2.70486 9.88898 2.6875 10.0001 2.6875C10.1112 2.6875 10.2154 2.70486 10.3126 2.73958C10.4098 2.77431 10.5001 2.83333 10.5834 2.91667L16.0834 8.41667C16.2362 8.56944 16.3126 8.76042 16.3126 8.98958C16.3126 9.21875 16.2362 9.41667 16.0834 9.58333C15.9168 9.75 15.7188 9.83333 15.4897 9.83333C15.2605 9.83333 15.0626 9.75 14.8959 9.58333L10.8334 5.52083V14.8333C10.8334 15.0694 10.7536 15.2674 10.5938 15.4271C10.4341 15.5868 10.2362 15.6667 10.0001 15.6667C9.76398 15.6667 9.56606 15.5868 9.40634 15.4271C9.24662 15.2674 9.16676 15.0694 9.16676 14.8333V5.52083Z" fill="white"/>
</g>
</svg>
