<svg width="55" height="67" viewBox="0 0 55 67" fill="none" xmlns="http://www.w3.org/2000/svg">
<path d="M39.1394 0H27.1931V13.8957H39.1394V0Z" fill="white"/>
<path d="M27.1931 25.197H39.1394V44.7947C39.194 49.5105 37.8665 54.1362 35.3258 58.0839C32.8171 61.9194 27.9742 66.4829 19.0145 66.4829C9.25533 66.4829 3.56707 61.8167 0.497803 59.2597L8.03314 49.8621C11.0289 52.3352 13.9144 54.3696 19.0605 54.3696C22.9568 54.3696 24.5098 52.7645 25.4196 51.3646C26.6563 49.4203 27.2961 47.1465 27.2574 44.8321L27.1931 25.197Z" fill="white"/>
<path d="M21.1006 16.4248H9.1543V28.5567H21.1006V16.4248Z" fill="#29ABE2"/>
<path d="M45.3973 60.7904C45.3973 63.3754 44.1016 64.7659 42.2913 64.7659C40.481 64.7659 39.2955 63.1141 39.2955 60.9211C39.2955 58.728 40.5177 56.9922 42.3924 56.9922C44.267 56.9922 45.3973 58.7 45.3973 60.7904ZM40.6831 60.8931C40.6831 62.4516 41.2988 63.5994 42.3556 63.5994C43.4124 63.5994 44.0097 62.3862 44.0097 60.7997C44.0097 59.4092 43.4583 58.1027 42.3556 58.1027C41.2529 58.1027 40.6831 59.3626 40.6831 60.8931Z" fill="white"/>
<path d="M47.7682 57.104V64.6445H46.4449V57.104H47.7682Z" fill="white"/>
<path d="M49.2018 64.6445V57.104H50.6721L52.2527 60.2116C52.6596 61.0242 53.0216 61.8592 53.337 62.7127C53.2543 61.7795 53.2176 60.7063 53.2176 59.5117V57.104H54.4306V64.6445H53.0613L51.4624 61.4715C51.0391 60.638 50.6617 59.7812 50.3321 58.9051C50.3321 59.8384 50.3964 60.8929 50.3964 62.1901V64.6351L49.2018 64.6445Z" fill="white"/>
</svg>
