<svg width="124" height="108" viewBox="0 0 124 108" fill="none" xmlns="http://www.w3.org/2000/svg">
<g filter="url(#filter0_d_71395_18181)">
<path d="M4 32C4 20.799 4 15.1984 6.17987 10.9202C8.09734 7.15695 11.1569 4.09734 14.9202 2.17987C19.1984 0 24.799 0 36 0H88C99.201 0 104.802 0 109.08 2.17987C112.843 4.09734 115.903 7.15695 117.82 10.9202C120 15.1984 120 20.799 120 32V100H36C24.799 100 19.1984 100 14.9202 97.8201C11.1569 95.9027 8.09734 92.843 6.17987 89.0798C4 84.8016 4 79.201 4 68V32Z" fill="white" shape-rendering="crispEdges"/>
<mask id="mask0_71395_18181" style="mask-type:alpha" maskUnits="userSpaceOnUse" x="22" y="18" width="24" height="24">
<rect x="22" y="18" width="24" height="24" fill="#D9D9D9"/>
</mask>
<g mask="url(#mask0_71395_18181)">
<path d="M27 37H28.4L37.025 28.375L35.625 26.975L27 35.6V37ZM41.3 26.925L37.05 22.725L38.45 21.325C38.8333 20.9417 39.3042 20.75 39.8625 20.75C40.4208 20.75 40.8917 20.9417 41.275 21.325L42.675 22.725C43.0583 23.1083 43.2583 23.5708 43.275 24.1125C43.2917 24.6542 43.1083 25.1167 42.725 25.5L41.3 26.925ZM39.85 28.4L29.25 39H25V34.75L35.6 24.15L39.85 28.4Z" fill="#2A3647"/>
</g>
<path d="M55.4091 35.5V23.8636H62.4318V25.1136H56.8182V29.0455H62.0682V30.2955H56.8182V34.25H62.5227V35.5H55.4091ZM68.0852 35.6818C67.358 35.6818 66.7159 35.4981 66.1591 35.1307C65.6023 34.7595 65.1667 34.2367 64.8523 33.5625C64.5379 32.8845 64.3807 32.0833 64.3807 31.1591C64.3807 30.2424 64.5379 29.447 64.8523 28.7727C65.1667 28.0985 65.6042 27.5777 66.1648 27.2102C66.7254 26.8428 67.3731 26.6591 68.108 26.6591C68.6761 26.6591 69.125 26.7538 69.4545 26.9432C69.7879 27.1288 70.0417 27.3409 70.2159 27.5795C70.3939 27.8144 70.5322 28.0076 70.6307 28.1591H70.7443V23.8636H72.0852V35.5H70.7898V34.1591H70.6307C70.5322 34.3182 70.392 34.5189 70.2102 34.7614C70.0284 35 69.7689 35.214 69.4318 35.4034C69.0947 35.589 68.6458 35.6818 68.0852 35.6818ZM68.267 34.4773C68.8049 34.4773 69.2595 34.3371 69.6307 34.0568C70.0019 33.7727 70.2841 33.3807 70.4773 32.8807C70.6705 32.3769 70.767 31.7955 70.767 31.1364C70.767 30.4848 70.6723 29.9148 70.483 29.4261C70.2936 28.9337 70.0133 28.5511 69.642 28.2784C69.2708 28.0019 68.8125 27.8636 68.267 27.8636C67.6989 27.8636 67.2254 28.0095 66.8466 28.3011C66.4716 28.589 66.1894 28.9811 66 29.4773C65.8144 29.9697 65.7216 30.5227 65.7216 31.1364C65.7216 31.7576 65.8163 32.322 66.0057 32.8295C66.1989 33.3333 66.483 33.7348 66.858 34.0341C67.2367 34.3295 67.7064 34.4773 68.267 34.4773ZM74.7273 35.5V26.7727H76.0682V35.5H74.7273ZM75.4091 25.3182C75.1477 25.3182 74.9223 25.2292 74.733 25.0511C74.5473 24.8731 74.4545 24.6591 74.4545 24.4091C74.4545 24.1591 74.5473 23.9451 74.733 23.767C74.9223 23.589 75.1477 23.5 75.4091 23.5C75.6705 23.5 75.8939 23.589 76.0795 23.767C76.2689 23.9451 76.3636 24.1591 76.3636 24.4091C76.3636 24.6591 76.2689 24.8731 76.0795 25.0511C75.8939 25.2292 75.6705 25.3182 75.4091 25.3182ZM82.3196 26.7727V27.9091H77.7969V26.7727H82.3196ZM79.1151 24.6818H80.456V33C80.456 33.3788 80.5109 33.6629 80.6207 33.8523C80.7344 34.0379 80.8783 34.1629 81.0526 34.2273C81.2306 34.2879 81.4181 34.3182 81.6151 34.3182C81.7628 34.3182 81.884 34.3106 81.9787 34.2955C82.0734 34.2765 82.1491 34.2614 82.206 34.25L82.4787 35.4545C82.3878 35.4886 82.2609 35.5227 82.098 35.5568C81.9351 35.5947 81.7287 35.6136 81.4787 35.6136C81.0999 35.6136 80.7287 35.5322 80.3651 35.3693C80.0052 35.2064 79.706 34.9583 79.4673 34.625C79.2325 34.2917 79.1151 33.8712 79.1151 33.3636V24.6818Z" fill="#2A3647"/>
<mask id="mask1_71395_18181" style="mask-type:alpha" maskUnits="userSpaceOnUse" x="21" y="58" width="25" height="24">
<rect x="21.5" y="58" width="24" height="24" fill="#D9D9D9"/>
</mask>
<g mask="url(#mask1_71395_18181)">
<path d="M28.5 79C27.95 79 27.4792 78.8042 27.0875 78.4125C26.6958 78.0208 26.5 77.55 26.5 77V64C26.2167 64 25.9792 63.9042 25.7875 63.7125C25.5958 63.5208 25.5 63.2833 25.5 63C25.5 62.7167 25.5958 62.4792 25.7875 62.2875C25.9792 62.0958 26.2167 62 26.5 62H30.5C30.5 61.7167 30.5958 61.4792 30.7875 61.2875C30.9792 61.0958 31.2167 61 31.5 61H35.5C35.7833 61 36.0208 61.0958 36.2125 61.2875C36.4042 61.4792 36.5 61.7167 36.5 62H40.5C40.7833 62 41.0208 62.0958 41.2125 62.2875C41.4042 62.4792 41.5 62.7167 41.5 63C41.5 63.2833 41.4042 63.5208 41.2125 63.7125C41.0208 63.9042 40.7833 64 40.5 64V77C40.5 77.55 40.3042 78.0208 39.9125 78.4125C39.5208 78.8042 39.05 79 38.5 79H28.5ZM28.5 64V77H38.5V64H28.5ZM30.5 74C30.5 74.2833 30.5958 74.5208 30.7875 74.7125C30.9792 74.9042 31.2167 75 31.5 75C31.7833 75 32.0208 74.9042 32.2125 74.7125C32.4042 74.5208 32.5 74.2833 32.5 74V67C32.5 66.7167 32.4042 66.4792 32.2125 66.2875C32.0208 66.0958 31.7833 66 31.5 66C31.2167 66 30.9792 66.0958 30.7875 66.2875C30.5958 66.4792 30.5 66.7167 30.5 67V74ZM34.5 74C34.5 74.2833 34.5958 74.5208 34.7875 74.7125C34.9792 74.9042 35.2167 75 35.5 75C35.7833 75 36.0208 74.9042 36.2125 74.7125C36.4042 74.5208 36.5 74.2833 36.5 74V67C36.5 66.7167 36.4042 66.4792 36.2125 66.2875C36.0208 66.0958 35.7833 66 35.5 66C35.2167 66 34.9792 66.0958 34.7875 66.2875C34.5958 66.4792 34.5 66.7167 34.5 67V74Z" fill="#2A3647"/>
</g>
<path d="M58.5 75.5H54.9091V63.8636H58.6591C59.7879 63.8636 60.7538 64.0966 61.5568 64.5625C62.3598 65.0246 62.9754 65.6894 63.4034 66.5568C63.8314 67.4205 64.0455 68.4545 64.0455 69.6591C64.0455 70.8712 63.8295 71.9148 63.3977 72.7898C62.9659 73.661 62.3371 74.3314 61.5114 74.8011C60.6856 75.267 59.6818 75.5 58.5 75.5ZM56.3182 74.25H58.4091C59.3712 74.25 60.1686 74.0644 60.8011 73.6932C61.4337 73.322 61.9053 72.7936 62.2159 72.108C62.5265 71.4223 62.6818 70.6061 62.6818 69.6591C62.6818 68.7197 62.5284 67.911 62.2216 67.233C61.9148 66.5511 61.4564 66.0284 60.8466 65.6648C60.2367 65.2973 59.4773 65.1136 58.5682 65.1136H56.3182V74.25ZM69.8864 75.6818C69.0455 75.6818 68.3201 75.4962 67.7102 75.125C67.1042 74.75 66.6364 74.2273 66.3068 73.5568C65.9811 72.8826 65.8182 72.0985 65.8182 71.2045C65.8182 70.3106 65.9811 69.5227 66.3068 68.8409C66.6364 68.1553 67.0947 67.6212 67.6818 67.2386C68.2727 66.8523 68.9621 66.6591 69.75 66.6591C70.2045 66.6591 70.6534 66.7348 71.0966 66.8864C71.5398 67.0379 71.9432 67.2841 72.3068 67.625C72.6705 67.9621 72.9602 68.4091 73.1761 68.9659C73.392 69.5227 73.5 70.2083 73.5 71.0227V71.5909H66.7727V70.4318H72.1364C72.1364 69.9394 72.0379 69.5 71.8409 69.1136C71.6477 68.7273 71.3712 68.4223 71.0114 68.1989C70.6553 67.9754 70.2348 67.8636 69.75 67.8636C69.2159 67.8636 68.7538 67.9962 68.3636 68.2614C67.9773 68.5227 67.6799 68.8636 67.4716 69.2841C67.2633 69.7045 67.1591 70.1553 67.1591 70.6364V71.4091C67.1591 72.0682 67.2727 72.6269 67.5 73.0852C67.7311 73.5398 68.0511 73.8864 68.4602 74.125C68.8693 74.3598 69.3447 74.4773 69.8864 74.4773C70.2386 74.4773 70.5568 74.428 70.8409 74.3295C71.1288 74.2273 71.3769 74.0758 71.5852 73.875C71.7936 73.6705 71.9545 73.4167 72.0682 73.1136L73.3636 73.4773C73.2273 73.9167 72.9981 74.303 72.6761 74.6364C72.3542 74.9659 71.9564 75.2235 71.483 75.4091C71.0095 75.5909 70.4773 75.6818 69.8864 75.6818ZM76.8807 63.8636V75.5H75.5398V63.8636H76.8807ZM82.9957 75.6818C82.1548 75.6818 81.4295 75.4962 80.8196 75.125C80.2135 74.75 79.7457 74.2273 79.4162 73.5568C79.0904 72.8826 78.9276 72.0985 78.9276 71.2045C78.9276 70.3106 79.0904 69.5227 79.4162 68.8409C79.7457 68.1553 80.2041 67.6212 80.7912 67.2386C81.3821 66.8523 82.0715 66.6591 82.8594 66.6591C83.3139 66.6591 83.7628 66.7348 84.206 66.8864C84.6491 67.0379 85.0526 67.2841 85.4162 67.625C85.7798 67.9621 86.0696 68.4091 86.2855 68.9659C86.5014 69.5227 86.6094 70.2083 86.6094 71.0227V71.5909H79.8821V70.4318H85.2457C85.2457 69.9394 85.1473 69.5 84.9503 69.1136C84.7571 68.7273 84.4806 68.4223 84.1207 68.1989C83.7647 67.9754 83.3442 67.8636 82.8594 67.8636C82.3253 67.8636 81.8632 67.9962 81.473 68.2614C81.0866 68.5227 80.7893 68.8636 80.581 69.2841C80.3726 69.7045 80.2685 70.1553 80.2685 70.6364V71.4091C80.2685 72.0682 80.3821 72.6269 80.6094 73.0852C80.8404 73.5398 81.1605 73.8864 81.5696 74.125C81.9787 74.3598 82.4541 74.4773 82.9957 74.4773C83.348 74.4773 83.6662 74.428 83.9503 74.3295C84.2382 74.2273 84.4863 74.0758 84.6946 73.875C84.9029 73.6705 85.0639 73.4167 85.1776 73.1136L86.473 73.4773C86.3366 73.9167 86.1075 74.303 85.7855 74.6364C85.4635 74.9659 85.0658 75.2235 84.5923 75.4091C84.1188 75.5909 83.5866 75.6818 82.9957 75.6818ZM92.4446 66.7727V67.9091H87.9219V66.7727H92.4446ZM89.2401 64.6818H90.581V73C90.581 73.3788 90.6359 73.6629 90.7457 73.8523C90.8594 74.0379 91.0033 74.1629 91.1776 74.2273C91.3556 74.2879 91.5431 74.3182 91.7401 74.3182C91.8878 74.3182 92.009 74.3106 92.1037 74.2955C92.1984 74.2765 92.2741 74.2614 92.331 74.25L92.6037 75.4545C92.5128 75.4886 92.3859 75.5227 92.223 75.5568C92.0601 75.5947 91.8537 75.6136 91.6037 75.6136C91.2249 75.6136 90.8537 75.5322 90.4901 75.3693C90.1302 75.2064 89.831 74.9583 89.5923 74.625C89.3575 74.2917 89.2401 73.8712 89.2401 73.3636V64.6818ZM98.027 75.6818C97.1861 75.6818 96.4607 75.4962 95.8509 75.125C95.2448 74.75 94.777 74.2273 94.4474 73.5568C94.1217 72.8826 93.9588 72.0985 93.9588 71.2045C93.9588 70.3106 94.1217 69.5227 94.4474 68.8409C94.777 68.1553 95.2353 67.6212 95.8224 67.2386C96.4134 66.8523 97.1027 66.6591 97.8906 66.6591C98.3452 66.6591 98.794 66.7348 99.2372 66.8864C99.6804 67.0379 100.084 67.2841 100.447 67.625C100.811 67.9621 101.101 68.4091 101.317 68.9659C101.533 69.5227 101.641 70.2083 101.641 71.0227V71.5909H94.9134V70.4318H100.277C100.277 69.9394 100.179 69.5 99.9815 69.1136C99.7884 68.7273 99.5118 68.4223 99.152 68.1989C98.7959 67.9754 98.3755 67.8636 97.8906 67.8636C97.3565 67.8636 96.8944 67.9962 96.5043 68.2614C96.1179 68.5227 95.8205 68.8636 95.6122 69.2841C95.4039 69.7045 95.2997 70.1553 95.2997 70.6364V71.4091C95.2997 72.0682 95.4134 72.6269 95.6406 73.0852C95.8717 73.5398 96.1918 73.8864 96.6009 74.125C97.0099 74.3598 97.4853 74.4773 98.027 74.4773C98.3793 74.4773 98.6974 74.428 98.9815 74.3295C99.2694 74.2273 99.5175 74.0758 99.7259 73.875C99.9342 73.6705 100.095 73.4167 100.209 73.1136L101.504 73.4773C101.368 73.9167 101.139 74.303 100.817 74.6364C100.495 74.9659 100.097 75.2235 99.6236 75.4091C99.1501 75.5909 98.6179 75.6818 98.027 75.6818Z" fill="#2A3647"/>
</g>
<defs>
<filter id="filter0_d_71395_18181" x="0" y="0" width="124" height="108" filterUnits="userSpaceOnUse" color-interpolation-filters="sRGB">
<feFlood flood-opacity="0" result="BackgroundImageFix"/>
<feColorMatrix in="SourceAlpha" type="matrix" values="0 0 0 0 0 0 0 0 0 0 0 0 0 0 0 0 0 0 127 0" result="hardAlpha"/>
<feOffset dy="4"/>
<feGaussianBlur stdDeviation="2"/>
<feComposite in2="hardAlpha" operator="out"/>
<feColorMatrix type="matrix" values="0 0 0 0 0 0 0 0 0 0 0 0 0 0 0 0 0 0 0.25 0"/>
<feBlend mode="normal" in2="BackgroundImageFix" result="effect1_dropShadow_71395_18181"/>
<feBlend mode="normal" in="SourceGraphic" in2="effect1_dropShadow_71395_18181" result="shape"/>
</filter>
</defs>
</svg>
