<svg width="334" height="82" viewBox="0 0 334 82" fill="none" xmlns="http://www.w3.org/2000/svg">
<g filter="url(#filter0_d_597_4043)">
<rect x="4" y="4" width="326" height="74" rx="20" fill="#2A3647" shape-rendering="crispEdges"/>
<path d="M42.4659 38H40.7045C40.6004 37.4934 40.4181 37.0483 40.1577 36.6648C39.902 36.2812 39.5895 35.9593 39.2202 35.6989C38.8556 35.4337 38.4508 35.2348 38.0057 35.1023C37.5606 34.9697 37.0966 34.9034 36.6136 34.9034C35.733 34.9034 34.9351 35.1259 34.2202 35.571C33.5099 36.0161 32.9441 36.6719 32.5227 37.5384C32.1061 38.4048 31.8977 39.4678 31.8977 40.7273C31.8977 41.9867 32.1061 43.0497 32.5227 43.9162C32.9441 44.7827 33.5099 45.4384 34.2202 45.8835C34.9351 46.3286 35.733 46.5511 36.6136 46.5511C37.0966 46.5511 37.5606 46.4848 38.0057 46.3523C38.4508 46.2197 38.8556 46.0232 39.2202 45.7628C39.5895 45.4976 39.902 45.1733 40.1577 44.7898C40.4181 44.4015 40.6004 43.9564 40.7045 43.4545H42.4659C42.3333 44.1979 42.0919 44.8632 41.7415 45.4503C41.3911 46.0374 40.9555 46.5369 40.4347 46.9489C39.9138 47.3561 39.3291 47.6662 38.6804 47.8793C38.0365 48.0923 37.3475 48.1989 36.6136 48.1989C35.3731 48.1989 34.2699 47.8958 33.304 47.2898C32.3381 46.6837 31.5781 45.822 31.0241 44.7045C30.4702 43.5871 30.1932 42.2614 30.1932 40.7273C30.1932 39.1932 30.4702 37.8674 31.0241 36.75C31.5781 35.6326 32.3381 34.7708 33.304 34.1648C34.2699 33.5587 35.3731 33.2557 36.6136 33.2557C37.3475 33.2557 38.0365 33.3622 38.6804 33.5753C39.3291 33.7884 39.9138 34.1009 40.4347 34.5128C40.9555 34.92 41.3911 35.4171 41.7415 36.0043C42.0919 36.5866 42.3333 37.2519 42.4659 38ZM49.5167 48.2273C48.5318 48.2273 47.6677 47.9929 46.9244 47.5241C46.1857 47.0554 45.6081 46.3996 45.1914 45.5568C44.7795 44.714 44.5735 43.7292 44.5735 42.6023C44.5735 41.4659 44.7795 40.474 45.1914 39.6264C45.6081 38.7789 46.1857 38.1207 46.9244 37.652C47.6677 37.1832 48.5318 36.9489 49.5167 36.9489C50.5015 36.9489 51.3633 37.1832 52.1019 37.652C52.8453 38.1207 53.4229 38.7789 53.8349 39.6264C54.2515 40.474 54.4599 41.4659 54.4599 42.6023C54.4599 43.7292 54.2515 44.714 53.8349 45.5568C53.4229 46.3996 52.8453 47.0554 52.1019 47.5241C51.3633 47.9929 50.5015 48.2273 49.5167 48.2273ZM49.5167 46.7216C50.2648 46.7216 50.8803 46.5298 51.3633 46.1463C51.8462 45.7628 52.2037 45.2585 52.4357 44.6335C52.6677 44.0085 52.7837 43.3314 52.7837 42.6023C52.7837 41.8731 52.6677 41.1937 52.4357 40.5639C52.2037 39.9342 51.8462 39.4252 51.3633 39.0369C50.8803 38.6487 50.2648 38.4545 49.5167 38.4545C48.7686 38.4545 48.1531 38.6487 47.6701 39.0369C47.1871 39.4252 46.8297 39.9342 46.5977 40.5639C46.3656 41.1937 46.2496 41.8731 46.2496 42.6023C46.2496 43.3314 46.3656 44.0085 46.5977 44.6335C46.8297 45.2585 47.1871 45.7628 47.6701 46.1463C48.1531 46.5298 48.7686 46.7216 49.5167 46.7216ZM58.6946 41.4375V48H57.0185V37.0909H58.6378V38.7955H58.7798C59.0355 38.2415 59.4238 37.7964 59.9446 37.4602C60.4654 37.1193 61.1378 36.9489 61.9616 36.9489C62.7003 36.9489 63.3466 37.1004 63.9006 37.4034C64.4545 37.7017 64.8854 38.1562 65.1932 38.767C65.5009 39.3731 65.6548 40.1402 65.6548 41.0682V48H63.9787V41.1818C63.9787 40.3248 63.7562 39.6572 63.3111 39.179C62.866 38.696 62.2552 38.4545 61.4787 38.4545C60.9437 38.4545 60.4654 38.5705 60.044 38.8026C59.6274 39.0346 59.2983 39.3731 59.0568 39.8182C58.8153 40.2633 58.6946 40.803 58.6946 41.4375ZM73.462 37.0909V38.5114H67.8086V37.0909H73.462ZM69.4563 34.4773H71.1325V44.875C71.1325 45.3485 71.2011 45.7036 71.3384 45.9403C71.4805 46.1723 71.6604 46.3286 71.8782 46.4091C72.1007 46.4848 72.3351 46.5227 72.5813 46.5227C72.766 46.5227 72.9175 46.5133 73.0359 46.4943C73.1542 46.4706 73.2489 46.4517 73.32 46.4375L73.6609 47.9432C73.5472 47.9858 73.3886 48.0284 73.185 48.071C72.9814 48.1184 72.7234 48.142 72.4109 48.142C71.9374 48.142 71.4734 48.0402 71.0188 47.8366C70.569 47.633 70.195 47.3229 69.8967 46.9062C69.6031 46.4896 69.4563 45.964 69.4563 45.3295V34.4773ZM79.1935 48.2557C78.5022 48.2557 77.8749 48.1255 77.3114 47.8651C76.748 47.5999 76.3005 47.2188 75.9691 46.7216C75.6377 46.2197 75.4719 45.6136 75.4719 44.9034C75.4719 44.2784 75.5951 43.7718 75.8413 43.3835C76.0875 42.9905 76.4165 42.6828 76.8285 42.4602C77.2404 42.2377 77.695 42.072 78.1921 41.9631C78.694 41.8494 79.1983 41.7595 79.7049 41.6932C80.3678 41.608 80.9052 41.544 81.3171 41.5014C81.7338 41.4541 82.0368 41.3759 82.2262 41.267C82.4203 41.1581 82.5174 40.9687 82.5174 40.6989V40.642C82.5174 39.9413 82.3256 39.3968 81.9421 39.0085C81.5633 38.6203 80.988 38.4261 80.2163 38.4261C79.4161 38.4261 78.7887 38.6013 78.3342 38.9517C77.8796 39.3021 77.56 39.6761 77.3754 40.0739L75.7844 39.5057C76.0685 38.8428 76.4473 38.3267 76.9208 37.9574C77.399 37.5833 77.9199 37.3229 78.4833 37.1761C79.0515 37.0246 79.6102 36.9489 80.1594 36.9489C80.5098 36.9489 80.9123 36.9915 81.3668 37.0767C81.8261 37.1572 82.2688 37.3253 82.695 37.581C83.1258 37.8366 83.4833 38.2225 83.7674 38.7386C84.0515 39.2547 84.1935 39.946 84.1935 40.8125V48H82.5174V46.5227H82.4322C82.3185 46.7595 82.1291 47.0128 81.864 47.2827C81.5988 47.5526 81.2461 47.7822 80.8058 47.9716C80.3654 48.161 79.828 48.2557 79.1935 48.2557ZM79.4492 46.75C80.1121 46.75 80.6708 46.6198 81.1254 46.3594C81.5846 46.099 81.9303 45.7628 82.1623 45.3509C82.399 44.9389 82.5174 44.5057 82.5174 44.0511V42.517C82.4464 42.6023 82.2901 42.6804 82.0487 42.7514C81.8119 42.8177 81.5373 42.8769 81.2248 42.929C80.917 42.9763 80.6164 43.0189 80.3228 43.0568C80.034 43.09 79.7996 43.1184 79.6197 43.142C79.1841 43.1989 78.7769 43.2912 78.3981 43.419C78.024 43.5421 77.721 43.7292 77.489 43.9801C77.2617 44.2263 77.1481 44.5625 77.1481 44.9886C77.1481 45.571 77.3635 46.0114 77.7944 46.3097C78.23 46.6032 78.7816 46.75 79.4492 46.75ZM91.6847 48.2273C90.6619 48.2273 89.7813 47.9858 89.0426 47.5028C88.304 47.0199 87.7358 46.3546 87.3381 45.5071C86.9403 44.6596 86.7415 43.6913 86.7415 42.6023C86.7415 41.4943 86.9451 40.5166 87.3523 39.669C87.7642 38.8168 88.3371 38.1515 89.071 37.6733C89.8097 37.1903 90.6714 36.9489 91.6562 36.9489C92.4233 36.9489 93.1146 37.0909 93.7301 37.375C94.3456 37.6591 94.8499 38.0568 95.2429 38.5682C95.6359 39.0795 95.8797 39.6761 95.9744 40.358H94.2983C94.1705 39.8608 93.8864 39.4205 93.446 39.0369C93.0104 38.6487 92.4233 38.4545 91.6847 38.4545C91.0313 38.4545 90.4583 38.625 89.9659 38.9659C89.4782 39.3021 89.0971 39.7779 88.8224 40.3935C88.5526 41.0043 88.4176 41.7216 88.4176 42.5455C88.4176 43.3883 88.5502 44.1222 88.8153 44.7472C89.0852 45.3722 89.464 45.8575 89.9517 46.2031C90.4441 46.5488 91.0218 46.7216 91.6847 46.7216C92.1203 46.7216 92.5156 46.6458 92.8707 46.4943C93.2259 46.3428 93.5265 46.125 93.7727 45.8409C94.0189 45.5568 94.1941 45.2159 94.2983 44.8182H95.9744C95.8797 45.4621 95.6454 46.0421 95.2713 46.5582C94.902 47.0696 94.4119 47.4768 93.8011 47.7798C93.1951 48.0781 92.4896 48.2273 91.6847 48.2273ZM103.169 37.0909V38.5114H97.5156V37.0909H103.169ZM99.1634 34.4773H100.839V44.875C100.839 45.3485 100.908 45.7036 101.045 45.9403C101.188 46.1723 101.367 46.3286 101.585 46.4091C101.808 46.4848 102.042 46.5227 102.288 46.5227C102.473 46.5227 102.625 46.5133 102.743 46.4943C102.861 46.4706 102.956 46.4517 103.027 46.4375L103.368 47.9432C103.254 47.9858 103.096 48.0284 102.892 48.071C102.688 48.1184 102.43 48.142 102.118 48.142C101.644 48.142 101.18 48.0402 100.726 47.8366C100.276 47.633 99.902 47.3229 99.6037 46.9062C99.3101 46.4896 99.1634 45.964 99.1634 45.3295V34.4773ZM119.043 39.5341L117.537 39.9602C117.442 39.7093 117.303 39.4654 117.118 39.2287C116.938 38.9872 116.692 38.7884 116.379 38.6321C116.067 38.4759 115.667 38.3977 115.179 38.3977C114.511 38.3977 113.955 38.5516 113.51 38.8594C113.07 39.1624 112.849 39.5483 112.849 40.017C112.849 40.4337 113.001 40.7628 113.304 41.0043C113.607 41.2457 114.08 41.447 114.724 41.608L116.344 42.0057C117.319 42.2424 118.046 42.6046 118.524 43.0923C119.002 43.5753 119.241 44.1979 119.241 44.9602C119.241 45.5852 119.062 46.1439 118.702 46.6364C118.347 47.1288 117.849 47.517 117.21 47.8011C116.571 48.0852 115.828 48.2273 114.98 48.2273C113.867 48.2273 112.946 47.9858 112.217 47.5028C111.488 47.0199 111.027 46.3144 110.832 45.3864L112.423 44.9886C112.575 45.5758 112.861 46.0161 113.283 46.3097C113.709 46.6032 114.265 46.75 114.952 46.75C115.733 46.75 116.353 46.5843 116.812 46.2528C117.277 45.9167 117.509 45.5142 117.509 45.0455C117.509 44.6667 117.376 44.3494 117.111 44.0938C116.846 43.8333 116.438 43.6392 115.889 43.5114L114.071 43.0852C113.072 42.8485 112.338 42.4815 111.869 41.9844C111.405 41.4825 111.173 40.8551 111.173 40.1023C111.173 39.4867 111.346 38.9422 111.692 38.4688C112.042 37.9953 112.518 37.6236 113.119 37.3537C113.725 37.0838 114.412 36.9489 115.179 36.9489C116.259 36.9489 117.106 37.1856 117.722 37.6591C118.342 38.1326 118.782 38.7576 119.043 39.5341ZM128.64 43.5398V37.0909H130.316V48H128.64V46.1534H128.526C128.27 46.7074 127.873 47.1785 127.333 47.5668C126.793 47.9503 126.111 48.142 125.287 48.142C124.605 48.142 123.999 47.9929 123.469 47.6946C122.939 47.3916 122.522 46.937 122.219 46.331C121.916 45.7202 121.765 44.9508 121.765 44.0227V37.0909H123.441V43.9091C123.441 44.7045 123.663 45.339 124.108 45.8125C124.558 46.286 125.131 46.5227 125.827 46.5227C126.244 46.5227 126.667 46.4162 127.098 46.2031C127.534 45.9901 127.899 45.6634 128.192 45.223C128.49 44.7827 128.64 44.2216 128.64 43.5398ZM137.817 48.2273C136.795 48.2273 135.914 47.9858 135.175 47.5028C134.437 47.0199 133.869 46.3546 133.471 45.5071C133.073 44.6596 132.874 43.6913 132.874 42.6023C132.874 41.4943 133.078 40.5166 133.485 39.669C133.897 38.8168 134.47 38.1515 135.204 37.6733C135.942 37.1903 136.804 36.9489 137.789 36.9489C138.556 36.9489 139.247 37.0909 139.863 37.375C140.478 37.6591 140.983 38.0568 141.376 38.5682C141.769 39.0795 142.013 39.6761 142.107 40.358H140.431C140.303 39.8608 140.019 39.4205 139.579 39.0369C139.143 38.6487 138.556 38.4545 137.817 38.4545C137.164 38.4545 136.591 38.625 136.099 38.9659C135.611 39.3021 135.23 39.7779 134.955 40.3935C134.685 41.0043 134.55 41.7216 134.55 42.5455C134.55 43.3883 134.683 44.1222 134.948 44.7472C135.218 45.3722 135.597 45.8575 136.085 46.2031C136.577 46.5488 137.155 46.7216 137.817 46.7216C138.253 46.7216 138.648 46.6458 139.004 46.4943C139.359 46.3428 139.659 46.125 139.906 45.8409C140.152 45.5568 140.327 45.2159 140.431 44.8182H142.107C142.013 45.4621 141.778 46.0421 141.404 46.5582C141.035 47.0696 140.545 47.4768 139.934 47.7798C139.328 48.0781 138.622 48.2273 137.817 48.2273ZM148.989 48.2273C147.967 48.2273 147.086 47.9858 146.347 47.5028C145.609 47.0199 145.04 46.3546 144.643 45.5071C144.245 44.6596 144.046 43.6913 144.046 42.6023C144.046 41.4943 144.25 40.5166 144.657 39.669C145.069 38.8168 145.642 38.1515 146.376 37.6733C147.114 37.1903 147.976 36.9489 148.961 36.9489C149.728 36.9489 150.419 37.0909 151.035 37.375C151.65 37.6591 152.155 38.0568 152.548 38.5682C152.941 39.0795 153.184 39.6761 153.279 40.358H151.603C151.475 39.8608 151.191 39.4205 150.751 39.0369C150.315 38.6487 149.728 38.4545 148.989 38.4545C148.336 38.4545 147.763 38.625 147.271 38.9659C146.783 39.3021 146.402 39.7779 146.127 40.3935C145.857 41.0043 145.722 41.7216 145.722 42.5455C145.722 43.3883 145.855 44.1222 146.12 44.7472C146.39 45.3722 146.769 45.8575 147.256 46.2031C147.749 46.5488 148.326 46.7216 148.989 46.7216C149.425 46.7216 149.82 46.6458 150.175 46.4943C150.531 46.3428 150.831 46.125 151.077 45.8409C151.324 45.5568 151.499 45.2159 151.603 44.8182H153.279C153.184 45.4621 152.95 46.0421 152.576 46.5582C152.207 47.0696 151.717 47.4768 151.106 47.7798C150.5 48.0781 149.794 48.2273 148.989 48.2273ZM160.303 48.2273C159.252 48.2273 158.345 47.9953 157.583 47.5312C156.826 47.0625 156.241 46.4091 155.829 45.571C155.422 44.7282 155.218 43.7481 155.218 42.6307C155.218 41.5133 155.422 40.5284 155.829 39.6761C156.241 38.8191 156.814 38.1515 157.548 37.6733C158.286 37.1903 159.148 36.9489 160.133 36.9489C160.701 36.9489 161.262 37.0436 161.816 37.233C162.37 37.4223 162.874 37.7301 163.329 38.1562C163.783 38.5777 164.146 39.1364 164.415 39.8324C164.685 40.5284 164.82 41.3854 164.82 42.4034V43.1136H156.411V41.6648H163.116C163.116 41.0492 162.993 40.5 162.746 40.017C162.505 39.5341 162.159 39.1529 161.71 38.8736C161.264 38.5942 160.739 38.4545 160.133 38.4545C159.465 38.4545 158.888 38.6203 158.4 38.9517C157.917 39.2784 157.545 39.7045 157.285 40.2301C157.024 40.7557 156.894 41.3191 156.894 41.9205V42.8864C156.894 43.7102 157.036 44.4086 157.32 44.9815C157.609 45.5497 158.009 45.983 158.521 46.2812C159.032 46.5748 159.626 46.7216 160.303 46.7216C160.744 46.7216 161.141 46.66 161.496 46.5369C161.856 46.4091 162.166 46.2197 162.427 45.9688C162.687 45.7131 162.888 45.3958 163.031 45.017L164.65 45.4716C164.479 46.0208 164.193 46.5038 163.79 46.9205C163.388 47.3324 162.891 47.6544 162.299 47.8864C161.707 48.1136 161.042 48.2273 160.303 48.2273ZM175.097 39.5341L173.592 39.9602C173.497 39.7093 173.357 39.4654 173.173 39.2287C172.993 38.9872 172.746 38.7884 172.434 38.6321C172.121 38.4759 171.721 38.3977 171.234 38.3977C170.566 38.3977 170.01 38.5516 169.565 38.8594C169.124 39.1624 168.904 39.5483 168.904 40.017C168.904 40.4337 169.056 40.7628 169.359 41.0043C169.662 41.2457 170.135 41.447 170.779 41.608L172.398 42.0057C173.374 42.2424 174.101 42.6046 174.579 43.0923C175.057 43.5753 175.296 44.1979 175.296 44.9602C175.296 45.5852 175.116 46.1439 174.756 46.6364C174.401 47.1288 173.904 47.517 173.265 47.8011C172.626 48.0852 171.882 48.2273 171.035 48.2273C169.922 48.2273 169.001 47.9858 168.272 47.5028C167.543 47.0199 167.081 46.3144 166.887 45.3864L168.478 44.9886C168.629 45.5758 168.916 46.0161 169.337 46.3097C169.763 46.6032 170.32 46.75 171.006 46.75C171.788 46.75 172.408 46.5843 172.867 46.2528C173.331 45.9167 173.563 45.5142 173.563 45.0455C173.563 44.6667 173.431 44.3494 173.165 44.0938C172.9 43.8333 172.493 43.6392 171.944 43.5114L170.126 43.0852C169.127 42.8485 168.393 42.4815 167.924 41.9844C167.46 41.4825 167.228 40.8551 167.228 40.1023C167.228 39.4867 167.401 38.9422 167.746 38.4688C168.097 37.9953 168.573 37.6236 169.174 37.3537C169.78 37.0838 170.467 36.9489 171.234 36.9489C172.313 36.9489 173.161 37.1856 173.776 37.6591C174.397 38.1326 174.837 38.7576 175.097 39.5341ZM185.547 39.5341L184.041 39.9602C183.946 39.7093 183.806 39.4654 183.622 39.2287C183.442 38.9872 183.196 38.7884 182.883 38.6321C182.571 38.4759 182.171 38.3977 181.683 38.3977C181.015 38.3977 180.459 38.5516 180.014 38.8594C179.574 39.1624 179.353 39.5483 179.353 40.017C179.353 40.4337 179.505 40.7628 179.808 41.0043C180.111 41.2457 180.584 41.447 181.228 41.608L182.848 42.0057C183.823 42.2424 184.55 42.6046 185.028 43.0923C185.506 43.5753 185.745 44.1979 185.745 44.9602C185.745 45.5852 185.565 46.1439 185.206 46.6364C184.85 47.1288 184.353 47.517 183.714 47.8011C183.075 48.0852 182.332 48.2273 181.484 48.2273C180.371 48.2273 179.45 47.9858 178.721 47.5028C177.992 47.0199 177.53 46.3144 177.336 45.3864L178.927 44.9886C179.079 45.5758 179.365 46.0161 179.787 46.3097C180.213 46.6032 180.769 46.75 181.456 46.75C182.237 46.75 182.857 46.5843 183.316 46.2528C183.78 45.9167 184.012 45.5142 184.012 45.0455C184.012 44.6667 183.88 44.3494 183.615 44.0938C183.35 43.8333 182.942 43.6392 182.393 43.5114L180.575 43.0852C179.576 42.8485 178.842 42.4815 178.373 41.9844C177.909 41.4825 177.677 40.8551 177.677 40.1023C177.677 39.4867 177.85 38.9422 178.196 38.4688C178.546 37.9953 179.022 37.6236 179.623 37.3537C180.229 37.0838 180.916 36.9489 181.683 36.9489C182.762 36.9489 183.61 37.1856 184.225 37.6591C184.846 38.1326 185.286 38.7576 185.547 39.5341ZM193.126 37.0909V38.5114H187.246V37.0909H193.126ZM189.007 48V35.5852C189.007 34.9602 189.154 34.4394 189.447 34.0227C189.741 33.6061 190.122 33.2936 190.591 33.0852C191.06 32.8769 191.554 32.7727 192.075 32.7727C192.487 32.7727 192.823 32.8059 193.084 32.8722C193.344 32.9384 193.538 33 193.666 33.0568L193.183 34.5057C193.098 34.4773 192.98 34.4418 192.828 34.3991C192.681 34.3565 192.487 34.3352 192.246 34.3352C191.692 34.3352 191.292 34.4749 191.045 34.7543C190.804 35.0336 190.683 35.4432 190.683 35.983V48H189.007ZM202.35 43.5398V37.0909H204.027V48H202.35V46.1534H202.237C201.981 46.7074 201.583 47.1785 201.044 47.5668C200.504 47.9503 199.822 48.142 198.998 48.142C198.316 48.142 197.71 47.9929 197.18 47.6946C196.65 47.3916 196.233 46.937 195.93 46.331C195.627 45.7202 195.475 44.9508 195.475 44.0227V37.0909H197.152V43.9091C197.152 44.7045 197.374 45.339 197.819 45.8125C198.269 46.286 198.842 46.5227 199.538 46.5227C199.955 46.5227 200.378 46.4162 200.809 46.2031C201.245 45.9901 201.609 45.6634 201.903 45.223C202.201 44.7827 202.35 44.2216 202.35 43.5398ZM208.773 33.4545V48H207.097V33.4545H208.773ZM213.519 33.4545V48H211.843V33.4545H213.519ZM217.668 52.0909C217.384 52.0909 217.131 52.0672 216.908 52.0199C216.686 51.9773 216.532 51.9347 216.447 51.892L216.873 50.4148C217.28 50.5189 217.64 50.5568 217.952 50.5284C218.265 50.5 218.542 50.3603 218.783 50.1094C219.03 49.8632 219.254 49.4631 219.458 48.9091L219.771 48.0568L215.737 37.0909H217.555L220.566 45.7841H220.68L223.691 37.0909H225.509L220.879 49.5909C220.67 50.1544 220.412 50.6207 220.104 50.9901C219.797 51.3641 219.439 51.6411 219.032 51.821C218.629 52.0009 218.175 52.0909 217.668 52.0909ZM237.778 48.2273C236.756 48.2273 235.875 47.9858 235.136 47.5028C234.398 47.0199 233.83 46.3546 233.432 45.5071C233.034 44.6596 232.835 43.6913 232.835 42.6023C232.835 41.4943 233.039 40.5166 233.446 39.669C233.858 38.8168 234.431 38.1515 235.165 37.6733C235.903 37.1903 236.765 36.9489 237.75 36.9489C238.517 36.9489 239.208 37.0909 239.824 37.375C240.439 37.6591 240.944 38.0568 241.337 38.5682C241.73 39.0795 241.973 39.6761 242.068 40.358H240.392C240.264 39.8608 239.98 39.4205 239.54 39.0369C239.104 38.6487 238.517 38.4545 237.778 38.4545C237.125 38.4545 236.552 38.625 236.06 38.9659C235.572 39.3021 235.191 39.7779 234.916 40.3935C234.646 41.0043 234.511 41.7216 234.511 42.5455C234.511 43.3883 234.644 44.1222 234.909 44.7472C235.179 45.3722 235.558 45.8575 236.045 46.2031C236.538 46.5488 237.116 46.7216 237.778 46.7216C238.214 46.7216 238.609 46.6458 238.964 46.4943C239.32 46.3428 239.62 46.125 239.866 45.8409C240.113 45.5568 240.288 45.2159 240.392 44.8182H242.068C241.973 45.4621 241.739 46.0421 241.365 46.5582C240.996 47.0696 240.506 47.4768 239.895 47.7798C239.289 48.0781 238.583 48.2273 237.778 48.2273ZM244.518 48V37.0909H246.138V38.7386H246.251C246.45 38.1989 246.81 37.7609 247.331 37.4247C247.852 37.0885 248.439 36.9205 249.092 36.9205C249.215 36.9205 249.369 36.9228 249.554 36.9276C249.739 36.9323 249.878 36.9394 249.973 36.9489V38.6534C249.916 38.6392 249.786 38.6179 249.582 38.5895C249.384 38.5563 249.173 38.5398 248.95 38.5398C248.42 38.5398 247.946 38.651 247.53 38.8736C247.118 39.0914 246.791 39.3944 246.55 39.7827C246.313 40.1662 246.195 40.6042 246.195 41.0966V48H244.518ZM256.202 48.2273C255.151 48.2273 254.244 47.9953 253.482 47.5312C252.724 47.0625 252.139 46.4091 251.727 45.571C251.32 44.7282 251.116 43.7481 251.116 42.6307C251.116 41.5133 251.32 40.5284 251.727 39.6761C252.139 38.8191 252.712 38.1515 253.446 37.6733C254.185 37.1903 255.046 36.9489 256.031 36.9489C256.599 36.9489 257.161 37.0436 257.714 37.233C258.268 37.4223 258.773 37.7301 259.227 38.1562C259.682 38.5777 260.044 39.1364 260.314 39.8324C260.584 40.5284 260.719 41.3854 260.719 42.4034V43.1136H252.31V41.6648H259.014C259.014 41.0492 258.891 40.5 258.645 40.017C258.403 39.5341 258.058 39.1529 257.608 38.8736C257.163 38.5942 256.637 38.4545 256.031 38.4545C255.364 38.4545 254.786 38.6203 254.298 38.9517C253.815 39.2784 253.444 39.7045 253.183 40.2301C252.923 40.7557 252.793 41.3191 252.793 41.9205V42.8864C252.793 43.7102 252.935 44.4086 253.219 44.9815C253.508 45.5497 253.908 45.983 254.419 46.2812C254.93 46.5748 255.525 46.7216 256.202 46.7216C256.642 46.7216 257.04 46.66 257.395 46.5369C257.755 46.4091 258.065 46.2197 258.325 45.9688C258.586 45.7131 258.787 45.3958 258.929 45.017L260.548 45.4716C260.378 46.0208 260.091 46.5038 259.689 46.9205C259.286 47.3324 258.789 47.6544 258.197 47.8864C257.606 48.1136 256.94 48.2273 256.202 48.2273ZM266.479 48.2557C265.787 48.2557 265.16 48.1255 264.597 47.8651C264.033 47.5999 263.586 47.2188 263.254 46.7216C262.923 46.2197 262.757 45.6136 262.757 44.9034C262.757 44.2784 262.88 43.7718 263.126 43.3835C263.373 42.9905 263.702 42.6828 264.114 42.4602C264.526 42.2377 264.98 42.072 265.477 41.9631C265.979 41.8494 266.483 41.7595 266.99 41.6932C267.653 41.608 268.19 41.544 268.602 41.5014C269.019 41.4541 269.322 41.3759 269.511 41.267C269.705 41.1581 269.803 40.9687 269.803 40.6989V40.642C269.803 39.9413 269.611 39.3968 269.227 39.0085C268.848 38.6203 268.273 38.4261 267.501 38.4261C266.701 38.4261 266.074 38.6013 265.619 38.9517C265.165 39.3021 264.845 39.6761 264.661 40.0739L263.07 39.5057C263.354 38.8428 263.732 38.3267 264.206 37.9574C264.684 37.5833 265.205 37.3229 265.768 37.1761C266.337 37.0246 266.895 36.9489 267.445 36.9489C267.795 36.9489 268.197 36.9915 268.652 37.0767C269.111 37.1572 269.554 37.3253 269.98 37.581C270.411 37.8366 270.768 38.2225 271.053 38.7386C271.337 39.2547 271.479 39.946 271.479 40.8125V48H269.803V46.5227H269.717C269.604 46.7595 269.414 47.0128 269.149 47.2827C268.884 47.5526 268.531 47.7822 268.091 47.9716C267.651 48.161 267.113 48.2557 266.479 48.2557ZM266.734 46.75C267.397 46.75 267.956 46.6198 268.411 46.3594C268.87 46.099 269.215 45.7628 269.447 45.3509C269.684 44.9389 269.803 44.5057 269.803 44.0511V42.517C269.732 42.6023 269.575 42.6804 269.334 42.7514C269.097 42.8177 268.822 42.8769 268.51 42.929C268.202 42.9763 267.902 43.0189 267.608 43.0568C267.319 43.09 267.085 43.1184 266.905 43.142C266.469 43.1989 266.062 43.2912 265.683 43.419C265.309 43.5421 265.006 43.7292 264.774 43.9801C264.547 44.2263 264.433 44.5625 264.433 44.9886C264.433 45.571 264.649 46.0114 265.08 46.3097C265.515 46.6032 266.067 46.75 266.734 46.75ZM279.282 37.0909V38.5114H273.629V37.0909H279.282ZM275.277 34.4773H276.953V44.875C276.953 45.3485 277.021 45.7036 277.159 45.9403C277.301 46.1723 277.481 46.3286 277.699 46.4091C277.921 46.4848 278.155 46.5227 278.402 46.5227C278.586 46.5227 278.738 46.5133 278.856 46.4943C278.975 46.4706 279.069 46.4517 279.14 46.4375L279.481 47.9432C279.368 47.9858 279.209 48.0284 279.005 48.071C278.802 48.1184 278.544 48.142 278.231 48.142C277.758 48.142 277.294 48.0402 276.839 47.8366C276.389 47.633 276.015 47.3229 275.717 46.9062C275.423 46.4896 275.277 45.964 275.277 45.3295V34.4773ZM286.26 48.2273C285.209 48.2273 284.302 47.9953 283.54 47.5312C282.783 47.0625 282.198 46.4091 281.786 45.571C281.379 44.7282 281.175 43.7481 281.175 42.6307C281.175 41.5133 281.379 40.5284 281.786 39.6761C282.198 38.8191 282.771 38.1515 283.505 37.6733C284.243 37.1903 285.105 36.9489 286.09 36.9489C286.658 36.9489 287.219 37.0436 287.773 37.233C288.327 37.4223 288.831 37.7301 289.286 38.1562C289.74 38.5777 290.103 39.1364 290.373 39.8324C290.642 40.5284 290.777 41.3854 290.777 42.4034V43.1136H282.368V41.6648H289.073C289.073 41.0492 288.95 40.5 288.703 40.017C288.462 39.5341 288.116 39.1529 287.667 38.8736C287.221 38.5942 286.696 38.4545 286.09 38.4545C285.422 38.4545 284.845 38.6203 284.357 38.9517C283.874 39.2784 283.502 39.7045 283.242 40.2301C282.981 40.7557 282.851 41.3191 282.851 41.9205V42.8864C282.851 43.7102 282.993 44.4086 283.277 44.9815C283.566 45.5497 283.966 45.983 284.478 46.2812C284.989 46.5748 285.583 46.7216 286.26 46.7216C286.701 46.7216 287.098 46.66 287.453 46.5369C287.813 46.4091 288.123 46.2197 288.384 45.9688C288.644 45.7131 288.846 45.3958 288.988 45.017L290.607 45.4716C290.436 46.0208 290.15 46.5038 289.748 46.9205C289.345 47.3324 288.848 47.6544 288.256 47.8864C287.664 48.1136 286.999 48.2273 286.26 48.2273ZM297.446 48.2273C296.537 48.2273 295.735 47.9976 295.039 47.5384C294.343 47.0743 293.798 46.4209 293.405 45.5781C293.012 44.7306 292.816 43.7292 292.816 42.5739C292.816 41.428 293.012 40.4337 293.405 39.5909C293.798 38.7481 294.345 38.0971 295.046 37.6378C295.747 37.1785 296.556 36.9489 297.475 36.9489C298.185 36.9489 298.746 37.0672 299.158 37.304C299.575 37.536 299.892 37.8011 300.11 38.0994C300.332 38.393 300.505 38.6345 300.628 38.8239H300.77V33.4545H302.446V48H300.827V46.3239H300.628C300.505 46.5227 300.33 46.7737 300.103 47.0767C299.875 47.375 299.551 47.6425 299.13 47.8793C298.708 48.1113 298.147 48.2273 297.446 48.2273ZM297.674 46.7216C298.346 46.7216 298.914 46.5464 299.378 46.196C299.842 45.8409 300.195 45.3509 300.436 44.7259C300.678 44.0961 300.799 43.3693 300.799 42.5455C300.799 41.7311 300.68 41.0185 300.444 40.4077C300.207 39.7921 299.856 39.3139 299.392 38.973C298.928 38.6274 298.355 38.4545 297.674 38.4545C296.963 38.4545 296.372 38.6368 295.898 39.0014C295.429 39.3613 295.077 39.8513 294.84 40.4716C294.608 41.0871 294.492 41.7784 294.492 42.5455C294.492 43.322 294.61 44.0275 294.847 44.6619C295.088 45.2917 295.444 45.7936 295.912 46.1676C296.386 46.5369 296.973 46.7216 297.674 46.7216Z" fill="white"/>
</g>
<defs>
<filter id="filter0_d_597_4043" x="0" y="0" width="334" height="82" filterUnits="userSpaceOnUse" color-interpolation-filters="sRGB">
<feFlood flood-opacity="0" result="BackgroundImageFix"/>
<feColorMatrix in="SourceAlpha" type="matrix" values="0 0 0 0 0 0 0 0 0 0 0 0 0 0 0 0 0 0 127 0" result="hardAlpha"/>
<feOffset/>
<feGaussianBlur stdDeviation="2"/>
<feComposite in2="hardAlpha" operator="out"/>
<feColorMatrix type="matrix" values="0 0 0 0 0 0 0 0 0 0 0 0 0 0 0 0 0 0 0.15 0"/>
<feBlend mode="normal" in2="BackgroundImageFix" result="effect1_dropShadow_597_4043"/>
<feBlend mode="normal" in="SourceGraphic" in2="effect1_dropShadow_597_4043" result="shape"/>
</filter>
</defs>
</svg>
