<svg width="236" height="1024" viewBox="0 0 236 1024" fill="none" xmlns="http://www.w3.org/2000/svg">
<g filter="url(#filter0_d_45_2208)">
<rect width="232" height="1024" fill="#2A3647"/>
<path d="M137.655 64H115.497V89.4923H137.655V64Z" fill="white"/>
<path d="M115.497 110.225H137.655V146.178C137.756 154.829 135.294 163.315 130.582 170.557C125.928 177.594 116.946 185.966 100.328 185.966C82.2263 185.966 71.6758 177.406 65.9829 172.715L79.9594 155.474C85.5159 160.011 90.8679 163.743 100.413 163.743C107.64 163.743 110.52 160.799 112.208 158.231C114.502 154.664 115.688 150.492 115.616 146.246L115.497 110.225Z" fill="white"/>
<path d="M104.197 94.1318H82.0388V116.388H104.197V94.1318Z" fill="#29ABE2"/>
<path d="M149.262 175.522C149.262 180.265 146.859 182.815 143.501 182.815C140.143 182.815 137.945 179.785 137.945 175.762C137.945 171.739 140.212 168.554 143.689 168.554C147.166 168.554 149.262 171.687 149.262 175.522ZM140.518 175.711C140.518 178.57 141.66 180.675 143.621 180.675C145.581 180.675 146.689 178.45 146.689 175.539C146.689 172.988 145.666 170.592 143.621 170.592C141.575 170.592 140.518 172.903 140.518 175.711Z" fill="white"/>
<path d="M153.66 168.76V182.593H151.205V168.76H153.66Z" fill="white"/>
<path d="M156.319 182.593V168.76H159.046L161.977 174.461C162.732 175.952 163.404 177.483 163.989 179.049C163.835 177.337 163.767 175.368 163.767 173.177V168.76H166.017V182.593H163.477L160.512 176.772C159.726 175.243 159.027 173.671 158.415 172.064C158.415 173.776 158.535 175.711 158.535 178.09V182.576L156.319 182.593Z" fill="white"/>
<rect width="232" height="46" transform="translate(0 299.983)" fill="#091931"/>
<path d="M81.2273 310.483H60.7727H60.5C59.3954 310.483 58.5 311.379 58.5 312.483C58.5 312.663 58.5 312.79 58.5 312.823V333.277V333.483C58.5 334.587 59.3957 335.483 60.5003 335.483C60.6438 335.483 60.744 335.483 60.7727 335.483H81.2273C81.256 335.483 81.3562 335.483 81.4997 335.483C82.6043 335.483 83.5 334.587 83.5 333.482C83.5 333.376 83.5 333.302 83.5 333.277V312.823C83.5 312.79 83.5 312.663 83.5 312.483C83.5 311.379 82.6043 310.483 81.4997 310.483C81.3562 310.483 81.256 310.483 81.2273 310.483ZM73.2727 333.277H60.7727V324.186H73.2727V333.277ZM73.2727 321.914H60.7727V312.823L73.2727 312.823V321.914ZM81.2273 333.277H75.5455V312.823H81.2273V333.277Z" fill="white"/>
<path d="M101.773 319.756C101.705 319.18 101.428 318.733 100.943 318.415C100.458 318.097 99.8636 317.937 99.1591 317.937C98.6439 317.937 98.1932 318.021 97.8068 318.187C97.4242 318.354 97.125 318.583 96.9091 318.875C96.697 319.167 96.5909 319.498 96.5909 319.869C96.5909 320.18 96.6648 320.447 96.8125 320.67C96.964 320.89 97.1572 321.074 97.392 321.222C97.6269 321.365 97.8731 321.485 98.1307 321.58C98.3883 321.67 98.625 321.744 98.8409 321.801L100.023 322.119C100.326 322.199 100.663 322.309 101.034 322.449C101.409 322.589 101.767 322.78 102.108 323.023C102.453 323.261 102.737 323.568 102.96 323.943C103.184 324.318 103.295 324.778 103.295 325.324C103.295 325.953 103.131 326.521 102.801 327.028C102.475 327.536 101.998 327.939 101.369 328.239C100.744 328.538 99.9848 328.687 99.0909 328.687C98.2576 328.687 97.536 328.553 96.9261 328.284C96.3201 328.015 95.8428 327.64 95.4943 327.159C95.1496 326.678 94.9545 326.119 94.9091 325.483H96.3636C96.4015 325.922 96.5492 326.286 96.8068 326.574C97.0682 326.858 97.3977 327.07 97.7955 327.21C98.197 327.347 98.6288 327.415 99.0909 327.415C99.6288 327.415 100.112 327.328 100.54 327.153C100.968 326.975 101.307 326.729 101.557 326.415C101.807 326.097 101.932 325.725 101.932 325.301C101.932 324.915 101.824 324.6 101.608 324.358C101.392 324.115 101.108 323.919 100.756 323.767C100.403 323.615 100.023 323.483 99.6136 323.369L98.1818 322.96C97.2727 322.699 96.553 322.326 96.0227 321.841C95.4924 321.356 95.2273 320.722 95.2273 319.937C95.2273 319.286 95.4034 318.718 95.7557 318.233C96.1117 317.744 96.589 317.365 97.1875 317.097C97.7898 316.824 98.4621 316.687 99.2045 316.687C99.9545 316.687 100.621 316.822 101.205 317.091C101.788 317.356 102.25 317.72 102.591 318.182C102.936 318.644 103.117 319.169 103.136 319.756H101.773ZM110.93 324.915V319.756H112.271V328.483H110.93V327.006H110.839C110.635 327.449 110.317 327.826 109.885 328.136C109.453 328.443 108.908 328.597 108.249 328.597C107.703 328.597 107.218 328.477 106.794 328.239C106.37 327.996 106.036 327.633 105.794 327.148C105.552 326.659 105.43 326.044 105.43 325.301V319.756H106.771V325.21C106.771 325.847 106.949 326.354 107.305 326.733C107.665 327.112 108.124 327.301 108.68 327.301C109.014 327.301 109.353 327.216 109.697 327.045C110.046 326.875 110.338 326.614 110.572 326.261C110.811 325.909 110.93 325.46 110.93 324.915ZM114.727 328.483V319.756H116.023V321.119H116.136C116.318 320.653 116.612 320.292 117.017 320.034C117.422 319.773 117.909 319.642 118.477 319.642C119.053 319.642 119.532 319.773 119.915 320.034C120.301 320.292 120.602 320.653 120.818 321.119H120.909C121.133 320.669 121.468 320.311 121.915 320.045C122.362 319.776 122.898 319.642 123.523 319.642C124.303 319.642 124.941 319.886 125.438 320.375C125.934 320.86 126.182 321.615 126.182 322.642V328.483H124.841V322.642C124.841 321.998 124.665 321.538 124.312 321.261C123.96 320.985 123.545 320.847 123.068 320.847C122.455 320.847 121.979 321.032 121.642 321.403C121.305 321.771 121.136 322.237 121.136 322.801V328.483H119.773V322.506C119.773 322.009 119.612 321.61 119.29 321.307C118.968 321 118.553 320.847 118.045 320.847C117.697 320.847 117.371 320.939 117.068 321.125C116.769 321.311 116.527 321.568 116.341 321.898C116.159 322.223 116.068 322.6 116.068 323.028V328.483H114.727ZM128.634 328.483V319.756H129.929V321.119H130.043C130.224 320.653 130.518 320.292 130.923 320.034C131.329 319.773 131.815 319.642 132.384 319.642C132.959 319.642 133.438 319.773 133.821 320.034C134.207 320.292 134.509 320.653 134.724 321.119H134.815C135.039 320.669 135.374 320.311 135.821 320.045C136.268 319.776 136.804 319.642 137.429 319.642C138.209 319.642 138.848 319.886 139.344 320.375C139.84 320.86 140.088 321.615 140.088 322.642V328.483H138.747V322.642C138.747 321.998 138.571 321.538 138.219 321.261C137.866 320.985 137.452 320.847 136.974 320.847C136.361 320.847 135.885 321.032 135.548 321.403C135.211 321.771 135.043 322.237 135.043 322.801V328.483H133.679V322.506C133.679 322.009 133.518 321.61 133.196 321.307C132.874 321 132.459 320.847 131.952 320.847C131.603 320.847 131.277 320.939 130.974 321.125C130.675 321.311 130.433 321.568 130.247 321.898C130.065 322.223 129.974 322.6 129.974 323.028V328.483H128.634ZM145.108 328.687C144.555 328.687 144.053 328.583 143.602 328.375C143.152 328.163 142.794 327.858 142.528 327.46C142.263 327.059 142.131 326.574 142.131 326.006C142.131 325.506 142.229 325.1 142.426 324.79C142.623 324.475 142.886 324.229 143.216 324.051C143.545 323.873 143.909 323.74 144.307 323.653C144.708 323.562 145.112 323.49 145.517 323.437C146.047 323.369 146.477 323.318 146.807 323.284C147.14 323.246 147.383 323.184 147.534 323.097C147.689 323.009 147.767 322.858 147.767 322.642V322.597C147.767 322.036 147.614 321.6 147.307 321.29C147.004 320.979 146.544 320.824 145.926 320.824C145.286 320.824 144.784 320.964 144.42 321.244C144.057 321.525 143.801 321.824 143.653 322.142L142.381 321.687C142.608 321.157 142.911 320.744 143.29 320.449C143.672 320.15 144.089 319.941 144.54 319.824C144.994 319.703 145.441 319.642 145.881 319.642C146.161 319.642 146.483 319.676 146.847 319.744C147.214 319.809 147.568 319.943 147.909 320.148C148.254 320.352 148.54 320.661 148.767 321.074C148.994 321.487 149.108 322.04 149.108 322.733V328.483H147.767V327.301H147.699C147.608 327.49 147.456 327.693 147.244 327.909C147.032 328.125 146.75 328.309 146.398 328.46C146.045 328.612 145.616 328.687 145.108 328.687ZM145.312 327.483C145.843 327.483 146.29 327.379 146.653 327.17C147.021 326.962 147.297 326.693 147.483 326.364C147.672 326.034 147.767 325.687 147.767 325.324V324.097C147.71 324.165 147.585 324.227 147.392 324.284C147.203 324.337 146.983 324.384 146.733 324.426C146.487 324.464 146.246 324.498 146.011 324.528C145.78 324.555 145.593 324.578 145.449 324.597C145.1 324.642 144.775 324.716 144.472 324.818C144.172 324.917 143.93 325.066 143.744 325.267C143.563 325.464 143.472 325.733 143.472 326.074C143.472 326.54 143.644 326.892 143.989 327.131C144.337 327.365 144.778 327.483 145.312 327.483ZM151.555 328.483V319.756H152.851V321.074H152.942C153.101 320.642 153.389 320.292 153.805 320.023C154.222 319.754 154.692 319.619 155.214 319.619C155.313 319.619 155.436 319.621 155.584 319.625C155.732 319.629 155.843 319.634 155.919 319.642V321.006C155.874 320.994 155.769 320.977 155.607 320.955C155.447 320.928 155.279 320.915 155.101 320.915C154.677 320.915 154.298 321.004 153.964 321.182C153.635 321.356 153.374 321.598 153.18 321.909C152.991 322.216 152.896 322.566 152.896 322.96V328.483H151.555ZM158.638 331.756C158.411 331.756 158.208 331.737 158.03 331.699C157.852 331.665 157.729 331.631 157.661 331.597L158.001 330.415C158.327 330.498 158.615 330.528 158.865 330.506C159.115 330.483 159.337 330.371 159.53 330.17C159.727 329.973 159.907 329.653 160.07 329.21L160.32 328.528L157.092 319.756H158.547L160.956 326.71H161.047L163.456 319.756H164.911L161.206 329.756C161.039 330.206 160.833 330.58 160.587 330.875C160.34 331.174 160.054 331.396 159.729 331.54C159.407 331.684 159.043 331.756 158.638 331.756Z" fill="white"/>
<mask id="mask0_45_2208" style="mask-type:alpha" maskUnits="userSpaceOnUse" x="56" y="368" width="30" height="31">
<rect x="56" y="368.983" width="30" height="30" fill="#D9D9D9"/>
</mask>
<g mask="url(#mask0_45_2208)">
<path d="M60.6265 396.185C59.9558 396.185 59.3816 395.946 58.904 395.469C58.4263 394.991 58.1875 394.417 58.1875 393.746V376.673C58.1875 376.002 58.4263 375.428 58.904 374.951C59.3816 374.473 59.9558 374.234 60.6265 374.234H71.5107L69.0716 376.673H60.6265V393.746H77.6997V385.271L80.1387 382.832V393.746C80.1387 394.417 79.8999 394.991 79.4223 395.469C78.9446 395.946 78.3704 396.185 77.6997 396.185H60.6265ZM74.2546 374.935L75.9924 376.643L67.9436 384.691V386.429H69.6509L77.7302 378.35L79.468 380.057L71.3887 388.136C71.1651 388.36 70.906 388.538 70.6113 388.67C70.3166 388.802 70.0066 388.868 69.6814 388.868H66.7241C66.3786 388.868 66.0889 388.751 65.8552 388.518C65.6214 388.284 65.5046 387.994 65.5046 387.649V384.691C65.5046 384.366 65.5655 384.056 65.6875 383.761C65.8095 383.467 65.9822 383.208 66.2058 382.984L74.2546 374.935ZM79.468 380.057L74.2546 374.935L77.3034 371.886C77.7912 371.399 78.3755 371.155 79.0564 371.155C79.7373 371.155 80.3115 371.399 80.779 371.886L82.4863 373.624C82.9538 374.092 83.1875 374.661 83.1875 375.332C83.1875 376.002 82.9538 376.571 82.4863 377.039L79.468 380.057Z" fill="#CDCDCD"/>
</g>
<path d="M95.8864 389.483H94.4091L98.6818 377.847H100.136L104.409 389.483H102.932L99.4545 379.687H99.3636L95.8864 389.483ZM96.4318 384.937H102.386V386.187H96.4318V384.937ZM109.335 389.665C108.608 389.665 107.966 389.481 107.409 389.114C106.852 388.742 106.417 388.22 106.102 387.545C105.788 386.867 105.631 386.066 105.631 385.142C105.631 384.225 105.788 383.43 106.102 382.756C106.417 382.081 106.854 381.561 107.415 381.193C107.975 380.826 108.623 380.642 109.358 380.642C109.926 380.642 110.375 380.737 110.705 380.926C111.038 381.112 111.292 381.324 111.466 381.562C111.644 381.797 111.782 381.99 111.881 382.142H111.994V377.847H113.335V389.483H112.04V388.142H111.881C111.782 388.301 111.642 388.502 111.46 388.744C111.278 388.983 111.019 389.197 110.682 389.386C110.345 389.572 109.896 389.665 109.335 389.665ZM109.517 388.46C110.055 388.46 110.509 388.32 110.881 388.04C111.252 387.756 111.534 387.364 111.727 386.864C111.92 386.36 112.017 385.778 112.017 385.119C112.017 384.468 111.922 383.898 111.733 383.409C111.544 382.917 111.263 382.534 110.892 382.261C110.521 381.985 110.063 381.847 109.517 381.847C108.949 381.847 108.475 381.992 108.097 382.284C107.722 382.572 107.439 382.964 107.25 383.46C107.064 383.953 106.972 384.506 106.972 385.119C106.972 385.74 107.066 386.305 107.256 386.812C107.449 387.316 107.733 387.718 108.108 388.017C108.487 388.312 108.956 388.46 109.517 388.46ZM119.273 389.665C118.545 389.665 117.903 389.481 117.347 389.114C116.79 388.742 116.354 388.22 116.04 387.545C115.725 386.867 115.568 386.066 115.568 385.142C115.568 384.225 115.725 383.43 116.04 382.756C116.354 382.081 116.792 381.561 117.352 381.193C117.913 380.826 118.561 380.642 119.295 380.642C119.864 380.642 120.313 380.737 120.642 380.926C120.975 381.112 121.229 381.324 121.403 381.562C121.581 381.797 121.72 381.99 121.818 382.142H121.932V377.847H123.273V389.483H121.977V388.142H121.818C121.72 388.301 121.58 388.502 121.398 388.744C121.216 388.983 120.956 389.197 120.619 389.386C120.282 389.572 119.833 389.665 119.273 389.665ZM119.455 388.46C119.992 388.46 120.447 388.32 120.818 388.04C121.189 387.756 121.472 387.364 121.665 386.864C121.858 386.36 121.955 385.778 121.955 385.119C121.955 384.468 121.86 383.898 121.67 383.409C121.481 382.917 121.201 382.534 120.83 382.261C120.458 381.985 120 381.847 119.455 381.847C118.886 381.847 118.413 381.992 118.034 382.284C117.659 382.572 117.377 382.964 117.188 383.46C117.002 383.953 116.909 384.506 116.909 385.119C116.909 385.74 117.004 386.305 117.193 386.812C117.386 387.316 117.67 387.718 118.045 388.017C118.424 388.312 118.894 388.46 119.455 388.46ZM129.96 379.097V377.847H138.688V379.097H135.028V389.483H133.619V379.097H129.96ZM142.061 389.687C141.508 389.687 141.006 389.583 140.555 389.375C140.105 389.163 139.747 388.858 139.482 388.46C139.216 388.059 139.084 387.574 139.084 387.006C139.084 386.506 139.182 386.1 139.379 385.79C139.576 385.475 139.839 385.229 140.169 385.051C140.499 384.873 140.862 384.74 141.26 384.653C141.661 384.562 142.065 384.49 142.47 384.437C143 384.369 143.43 384.318 143.76 384.284C144.093 384.246 144.336 384.184 144.487 384.097C144.643 384.009 144.72 383.858 144.72 383.642V383.597C144.72 383.036 144.567 382.6 144.26 382.29C143.957 381.979 143.497 381.824 142.879 381.824C142.239 381.824 141.737 381.964 141.374 382.244C141.01 382.525 140.754 382.824 140.607 383.142L139.334 382.687C139.561 382.157 139.864 381.744 140.243 381.449C140.625 381.15 141.042 380.941 141.493 380.824C141.947 380.703 142.394 380.642 142.834 380.642C143.114 380.642 143.436 380.676 143.8 380.744C144.167 380.809 144.521 380.943 144.862 381.148C145.207 381.352 145.493 381.661 145.72 382.074C145.947 382.487 146.061 383.04 146.061 383.733V389.483H144.72V388.301H144.652C144.561 388.49 144.41 388.693 144.197 388.909C143.985 389.125 143.703 389.309 143.351 389.46C142.999 389.612 142.569 389.687 142.061 389.687ZM142.266 388.483C142.796 388.483 143.243 388.379 143.607 388.17C143.974 387.962 144.25 387.693 144.436 387.364C144.625 387.034 144.72 386.687 144.72 386.324V385.097C144.663 385.165 144.538 385.227 144.345 385.284C144.156 385.337 143.936 385.384 143.686 385.426C143.44 385.464 143.199 385.498 142.964 385.528C142.733 385.555 142.546 385.578 142.402 385.597C142.054 385.642 141.728 385.716 141.425 385.818C141.125 385.917 140.883 386.066 140.697 386.267C140.516 386.464 140.425 386.733 140.425 387.074C140.425 387.54 140.597 387.892 140.942 388.131C141.29 388.365 141.732 388.483 142.266 388.483ZM154.69 382.71L153.486 383.051C153.41 382.85 153.298 382.655 153.151 382.466C153.007 382.273 152.81 382.114 152.56 381.989C152.31 381.864 151.99 381.801 151.599 381.801C151.065 381.801 150.62 381.924 150.264 382.17C149.912 382.413 149.736 382.722 149.736 383.097C149.736 383.43 149.857 383.693 150.099 383.886C150.342 384.08 150.721 384.24 151.236 384.369L152.531 384.687C153.312 384.877 153.893 385.167 154.276 385.557C154.658 385.943 154.849 386.441 154.849 387.051C154.849 387.551 154.705 387.998 154.418 388.392C154.134 388.786 153.736 389.097 153.224 389.324C152.713 389.551 152.118 389.665 151.44 389.665C150.55 389.665 149.813 389.472 149.23 389.085C148.647 388.699 148.277 388.134 148.122 387.392L149.395 387.074C149.516 387.544 149.745 387.896 150.082 388.131C150.423 388.365 150.868 388.483 151.418 388.483C152.043 388.483 152.539 388.35 152.906 388.085C153.277 387.816 153.463 387.494 153.463 387.119C153.463 386.816 153.357 386.562 153.145 386.358C152.933 386.15 152.607 385.994 152.168 385.892L150.713 385.551C149.914 385.362 149.327 385.068 148.952 384.67C148.58 384.269 148.395 383.767 148.395 383.165C148.395 382.672 148.533 382.237 148.81 381.858C149.09 381.479 149.471 381.182 149.952 380.966C150.437 380.75 150.986 380.642 151.599 380.642C152.463 380.642 153.141 380.831 153.634 381.21C154.13 381.589 154.482 382.089 154.69 382.71ZM158.118 386.301L158.095 384.642H158.368L162.186 380.756H163.845L159.777 384.869H159.663L158.118 386.301ZM156.868 389.483V377.847H158.209V389.483H156.868ZM162.413 389.483L159.004 385.165L159.959 384.233L164.118 389.483H162.413Z" fill="#CDCDCD"/>
<path d="M78.9544 434.756L78.9545 455.21C78.9538 455.813 78.7142 456.39 78.2881 456.816C77.862 457.242 77.2843 457.482 76.6817 457.483L72.1363 457.483C71.5338 457.482 70.956 457.242 70.53 456.816C70.1039 456.39 69.8642 455.813 69.8636 455.21L69.8636 434.756C69.8642 434.153 70.1039 433.575 70.53 433.149C70.956 432.723 71.5338 432.484 72.1363 432.483L76.6817 432.483C77.2843 432.484 77.862 432.723 78.2881 433.149C78.7142 433.575 78.9538 434.153 78.9544 434.756ZM72.1363 455.21L76.6817 455.21L76.6817 434.756L72.1363 434.756L72.1363 455.21ZM72.1363 434.756L72.1363 455.21C72.1357 455.813 71.8961 456.39 71.47 456.816C71.0439 457.242 70.4662 457.482 69.8636 457.483L65.3182 457.483C64.7157 457.482 64.1379 457.242 63.7119 456.816C63.2858 456.39 63.0461 455.813 63.0455 455.21L63.0455 434.756C63.0461 434.153 63.2858 433.575 63.7119 433.149C64.1379 432.723 64.7157 432.484 65.3182 432.483L69.8636 432.483C70.4662 432.484 71.0439 432.723 71.47 433.149C71.8961 433.575 72.1357 434.153 72.1363 434.756ZM65.3182 455.21L69.8636 455.21L69.8636 434.756L65.3182 434.756L65.3182 455.21ZM65.3182 434.756L65.3182 455.21C65.3176 455.813 65.078 456.39 64.6519 456.816C64.2258 457.242 63.6481 457.482 63.0455 457.483L58.5001 457.483C57.8975 457.482 57.3198 457.242 56.8937 456.816C56.4677 456.39 56.228 455.813 56.2274 455.21L56.2274 434.756C56.228 434.153 56.4677 433.575 56.8937 433.149C57.3198 432.723 57.8975 432.484 58.5001 432.483L63.0455 432.483C63.6481 432.484 64.2258 432.723 64.6519 433.149C65.078 433.575 65.3176 434.153 65.3182 434.756ZM58.5001 455.21L63.0455 455.21L63.0455 434.756L58.5001 434.756L58.5001 455.21Z" fill="#CDCDCD"/>
<path d="M85.7726 434.756L85.7726 455.21C85.772 455.813 85.5323 456.391 85.1062 456.817C84.6802 457.243 84.1024 457.482 83.4999 457.483L78.9545 457.483C78.3519 457.482 77.7742 457.243 77.3481 456.817C76.922 456.391 76.6824 455.813 76.6817 455.21L76.6817 434.756C76.6823 434.153 76.922 433.576 77.3481 433.15C77.7742 432.723 78.3519 432.484 78.9544 432.483L83.4999 432.483C84.1024 432.484 84.6801 432.723 85.1062 433.15C85.5323 433.576 85.772 434.153 85.7726 434.756ZM78.9545 455.21L83.4999 455.21L83.4999 434.756L78.9544 434.756L78.9545 455.21Z" fill="#CDCDCD"/>
<path d="M95.4091 450.483V438.847H99.4773C100.288 438.847 100.956 438.987 101.483 439.267C102.009 439.544 102.402 439.917 102.659 440.386C102.917 440.852 103.045 441.369 103.045 441.937C103.045 442.437 102.956 442.85 102.778 443.176C102.604 443.502 102.373 443.759 102.085 443.949C101.801 444.138 101.492 444.278 101.159 444.369V444.483C101.515 444.506 101.873 444.631 102.233 444.858C102.593 445.085 102.894 445.411 103.136 445.835C103.379 446.259 103.5 446.778 103.5 447.392C103.5 447.975 103.367 448.5 103.102 448.966C102.837 449.432 102.419 449.801 101.847 450.074C101.275 450.347 100.53 450.483 99.6136 450.483H95.4091ZM96.8182 449.233H99.6136C100.534 449.233 101.188 449.055 101.574 448.699C101.964 448.339 102.159 447.903 102.159 447.392C102.159 446.998 102.059 446.634 101.858 446.301C101.657 445.964 101.371 445.695 101 445.494C100.629 445.29 100.189 445.187 99.6818 445.187H96.8182V449.233ZM96.8182 443.96H99.4318C99.8561 443.96 100.239 443.877 100.58 443.71C100.924 443.544 101.197 443.309 101.398 443.006C101.602 442.703 101.705 442.347 101.705 441.937C101.705 441.426 101.527 440.992 101.17 440.636C100.814 440.276 100.25 440.097 99.4773 440.097H96.8182V443.96ZM109.179 450.665C108.391 450.665 107.7 450.477 107.105 450.102C106.514 449.727 106.052 449.203 105.719 448.528C105.389 447.854 105.224 447.066 105.224 446.165C105.224 445.256 105.389 444.462 105.719 443.784C106.052 443.106 106.514 442.58 107.105 442.205C107.7 441.83 108.391 441.642 109.179 441.642C109.967 441.642 110.656 441.83 111.247 442.205C111.842 442.58 112.304 443.106 112.634 443.784C112.967 444.462 113.134 445.256 113.134 446.165C113.134 447.066 112.967 447.854 112.634 448.528C112.304 449.203 111.842 449.727 111.247 450.102C110.656 450.477 109.967 450.665 109.179 450.665ZM109.179 449.46C109.777 449.46 110.27 449.307 110.656 449C111.043 448.693 111.329 448.29 111.514 447.79C111.7 447.29 111.793 446.748 111.793 446.165C111.793 445.581 111.7 445.038 111.514 444.534C111.329 444.03 111.043 443.623 110.656 443.312C110.27 443.002 109.777 442.847 109.179 442.847C108.58 442.847 108.088 443.002 107.702 443.312C107.315 443.623 107.029 444.03 106.844 444.534C106.658 445.038 106.565 445.581 106.565 446.165C106.565 446.748 106.658 447.29 106.844 447.79C107.029 448.29 107.315 448.693 107.702 449C108.088 449.307 108.58 449.46 109.179 449.46ZM117.749 450.687C117.196 450.687 116.694 450.583 116.243 450.375C115.792 450.163 115.434 449.858 115.169 449.46C114.904 449.059 114.771 448.574 114.771 448.006C114.771 447.506 114.87 447.1 115.067 446.79C115.264 446.475 115.527 446.229 115.857 446.051C116.186 445.873 116.55 445.74 116.947 445.653C117.349 445.562 117.752 445.49 118.158 445.437C118.688 445.369 119.118 445.318 119.447 445.284C119.781 445.246 120.023 445.184 120.175 445.097C120.33 445.009 120.408 444.858 120.408 444.642V444.597C120.408 444.036 120.254 443.6 119.947 443.29C119.644 442.979 119.184 442.824 118.567 442.824C117.927 442.824 117.425 442.964 117.061 443.244C116.697 443.525 116.442 443.824 116.294 444.142L115.021 443.687C115.249 443.157 115.552 442.744 115.93 442.449C116.313 442.15 116.73 441.941 117.18 441.824C117.635 441.703 118.082 441.642 118.521 441.642C118.802 441.642 119.124 441.676 119.487 441.744C119.855 441.809 120.209 441.943 120.55 442.148C120.894 442.352 121.18 442.661 121.408 443.074C121.635 443.487 121.749 444.04 121.749 444.733V450.483H120.408V449.301H120.339C120.249 449.49 120.097 449.693 119.885 449.909C119.673 450.125 119.391 450.309 119.038 450.46C118.686 450.612 118.256 450.687 117.749 450.687ZM117.953 449.483C118.483 449.483 118.93 449.379 119.294 449.17C119.661 448.962 119.938 448.693 120.124 448.364C120.313 448.034 120.408 447.687 120.408 447.324V446.097C120.351 446.165 120.226 446.227 120.033 446.284C119.843 446.337 119.624 446.384 119.374 446.426C119.127 446.464 118.887 446.498 118.652 446.528C118.421 446.555 118.233 446.578 118.089 446.597C117.741 446.642 117.415 446.716 117.112 446.818C116.813 446.917 116.571 447.066 116.385 447.267C116.203 447.464 116.112 447.733 116.112 448.074C116.112 448.54 116.285 448.892 116.629 449.131C116.978 449.365 117.419 449.483 117.953 449.483ZM124.196 450.483V441.756H125.491V443.074H125.582C125.741 442.642 126.029 442.292 126.446 442.023C126.863 441.754 127.332 441.619 127.855 441.619C127.954 441.619 128.077 441.621 128.224 441.625C128.372 441.629 128.484 441.634 128.56 441.642V443.006C128.514 442.994 128.41 442.977 128.247 442.955C128.088 442.928 127.92 442.915 127.741 442.915C127.317 442.915 126.938 443.004 126.605 443.182C126.276 443.356 126.014 443.598 125.821 443.909C125.632 444.216 125.537 444.566 125.537 444.96V450.483H124.196ZM133.179 450.665C132.452 450.665 131.81 450.481 131.253 450.114C130.696 449.742 130.26 449.22 129.946 448.545C129.632 447.867 129.474 447.066 129.474 446.142C129.474 445.225 129.632 444.43 129.946 443.756C130.26 443.081 130.698 442.561 131.259 442.193C131.819 441.826 132.467 441.642 133.202 441.642C133.77 441.642 134.219 441.737 134.548 441.926C134.882 442.112 135.135 442.324 135.31 442.562C135.488 442.797 135.626 442.99 135.724 443.142H135.838V438.847H137.179V450.483H135.884V449.142H135.724C135.626 449.301 135.486 449.502 135.304 449.744C135.122 449.983 134.863 450.197 134.526 450.386C134.188 450.572 133.74 450.665 133.179 450.665ZM133.361 449.46C133.899 449.46 134.353 449.32 134.724 449.04C135.096 448.756 135.378 448.364 135.571 447.864C135.764 447.36 135.861 446.778 135.861 446.119C135.861 445.468 135.766 444.898 135.577 444.409C135.387 443.917 135.107 443.534 134.736 443.261C134.365 442.985 133.906 442.847 133.361 442.847C132.793 442.847 132.319 442.992 131.94 443.284C131.565 443.572 131.283 443.964 131.094 444.46C130.908 444.953 130.815 445.506 130.815 446.119C130.815 446.74 130.91 447.305 131.099 447.812C131.293 448.316 131.577 448.718 131.952 449.017C132.33 449.312 132.8 449.46 133.361 449.46Z" fill="#CDCDCD"/>
<mask id="mask1_45_2208" style="mask-type:alpha" maskUnits="userSpaceOnUse" x="56" y="490" width="30" height="31">
<rect x="56" y="490.983" width="30" height="30" fill="#D9D9D9"/>
</mask>
<g mask="url(#mask1_45_2208)">
<path d="M71 513.483C69.8333 513.483 68.7188 513.665 67.6563 514.03C66.5938 514.394 65.625 514.941 64.75 515.67V515.983H77.25V515.67C76.375 514.941 75.4062 514.394 74.3438 514.03C73.2812 513.665 72.1667 513.483 71 513.483ZM62.25 514.545C63.375 513.441 64.6823 512.571 66.1719 511.936C67.6615 511.301 69.2708 510.983 71 510.983C72.7292 510.983 74.3385 511.301 75.8281 511.936C77.3177 512.571 78.625 513.441 79.75 514.545V498.483H62.25V514.545ZM71 508.483C69.7917 508.483 68.7604 508.056 67.9062 507.202C67.0521 506.347 66.625 505.316 66.625 504.108C66.625 502.9 67.0521 501.868 67.9062 501.014C68.7604 500.16 69.7917 499.733 71 499.733C72.2083 499.733 73.2396 500.16 74.0938 501.014C74.9479 501.868 75.375 502.9 75.375 504.108C75.375 505.316 74.9479 506.347 74.0938 507.202C73.2396 508.056 72.2083 508.483 71 508.483ZM71 505.983C71.5208 505.983 71.9635 505.801 72.3281 505.436C72.6927 505.071 72.875 504.629 72.875 504.108C72.875 503.587 72.6927 503.144 72.3281 502.78C71.9635 502.415 71.5208 502.233 71 502.233C70.4792 502.233 70.0365 502.415 69.6719 502.78C69.3073 503.144 69.125 503.587 69.125 504.108C69.125 504.629 69.3073 505.071 69.6719 505.436C70.0365 505.801 70.4792 505.983 71 505.983ZM62.25 518.483C61.5625 518.483 60.974 518.238 60.4844 517.749C59.9948 517.259 59.75 516.67 59.75 515.983V498.483C59.75 497.795 59.9948 497.207 60.4844 496.717C60.974 496.228 61.5625 495.983 62.25 495.983H63.5V493.483H66V495.983H76V493.483H78.5V495.983H79.75C80.4375 495.983 81.026 496.228 81.5156 496.717C82.0052 497.207 82.25 497.795 82.25 498.483V515.983C82.25 516.67 82.0052 517.259 81.5156 517.749C81.026 518.238 80.4375 518.483 79.75 518.483H62.25Z" fill="#CDCDCD"/>
</g>
<path d="M104.773 503.483H103.364C103.28 503.078 103.134 502.722 102.926 502.415C102.722 502.108 102.472 501.85 102.176 501.642C101.884 501.43 101.561 501.271 101.205 501.165C100.848 501.059 100.477 501.006 100.091 501.006C99.3864 501.006 98.7481 501.184 98.1761 501.54C97.608 501.896 97.1553 502.42 96.8182 503.114C96.4848 503.807 96.3182 504.657 96.3182 505.665C96.3182 506.672 96.4848 507.523 96.8182 508.216C97.1553 508.909 97.608 509.434 98.1761 509.79C98.7481 510.146 99.3864 510.324 100.091 510.324C100.477 510.324 100.848 510.271 101.205 510.165C101.561 510.059 101.884 509.901 102.176 509.693C102.472 509.481 102.722 509.222 102.926 508.915C103.134 508.604 103.28 508.248 103.364 507.847H104.773C104.667 508.441 104.473 508.973 104.193 509.443C103.913 509.913 103.564 510.312 103.148 510.642C102.731 510.968 102.263 511.216 101.744 511.386C101.229 511.557 100.678 511.642 100.091 511.642C99.0985 511.642 98.2159 511.4 97.4432 510.915C96.6705 510.43 96.0625 509.74 95.6193 508.847C95.1761 507.953 94.9545 506.892 94.9545 505.665C94.9545 504.437 95.1761 503.377 95.6193 502.483C96.0625 501.589 96.6705 500.9 97.4432 500.415C98.2159 499.93 99.0985 499.687 100.091 499.687C100.678 499.687 101.229 499.773 101.744 499.943C102.263 500.114 102.731 500.364 103.148 500.693C103.564 501.019 103.913 501.417 104.193 501.886C104.473 502.352 104.667 502.884 104.773 503.483ZM110.413 511.665C109.625 511.665 108.934 511.477 108.339 511.102C107.749 510.727 107.286 510.203 106.953 509.528C106.624 508.854 106.459 508.066 106.459 507.165C106.459 506.256 106.624 505.462 106.953 504.784C107.286 504.106 107.749 503.58 108.339 503.205C108.934 502.83 109.625 502.642 110.413 502.642C111.201 502.642 111.891 502.83 112.482 503.205C113.076 503.58 113.538 504.106 113.868 504.784C114.201 505.462 114.368 506.256 114.368 507.165C114.368 508.066 114.201 508.854 113.868 509.528C113.538 510.203 113.076 510.727 112.482 511.102C111.891 511.477 111.201 511.665 110.413 511.665ZM110.413 510.46C111.012 510.46 111.504 510.307 111.891 510C112.277 509.693 112.563 509.29 112.749 508.79C112.934 508.29 113.027 507.748 113.027 507.165C113.027 506.581 112.934 506.038 112.749 505.534C112.563 505.03 112.277 504.623 111.891 504.312C111.504 504.002 111.012 503.847 110.413 503.847C109.815 503.847 109.322 504.002 108.936 504.312C108.55 504.623 108.264 505.03 108.078 505.534C107.893 506.038 107.8 506.581 107.8 507.165C107.8 507.748 107.893 508.29 108.078 508.79C108.264 509.29 108.55 509.693 108.936 510C109.322 510.307 109.815 510.46 110.413 510.46ZM117.756 506.233V511.483H116.415V502.756H117.71V504.119H117.824C118.028 503.676 118.339 503.32 118.756 503.051C119.172 502.778 119.71 502.642 120.369 502.642C120.96 502.642 121.477 502.763 121.92 503.006C122.364 503.244 122.708 503.608 122.955 504.097C123.201 504.581 123.324 505.195 123.324 505.937V511.483H121.983V506.028C121.983 505.343 121.805 504.809 121.449 504.426C121.093 504.04 120.604 503.847 119.983 503.847C119.555 503.847 119.172 503.939 118.835 504.125C118.502 504.311 118.239 504.581 118.045 504.937C117.852 505.294 117.756 505.725 117.756 506.233ZM129.57 502.756V503.892H125.047V502.756H129.57ZM126.365 500.665H127.706V508.983C127.706 509.362 127.761 509.646 127.871 509.835C127.984 510.021 128.128 510.146 128.303 510.21C128.481 510.271 128.668 510.301 128.865 510.301C129.013 510.301 129.134 510.294 129.229 510.278C129.323 510.259 129.399 510.244 129.456 510.233L129.729 511.437C129.638 511.472 129.511 511.506 129.348 511.54C129.185 511.578 128.979 511.597 128.729 511.597C128.35 511.597 127.979 511.515 127.615 511.352C127.255 511.189 126.956 510.941 126.717 510.608C126.482 510.275 126.365 509.854 126.365 509.347V500.665ZM134.155 511.687C133.602 511.687 133.1 511.583 132.649 511.375C132.198 511.163 131.84 510.858 131.575 510.46C131.31 510.059 131.178 509.574 131.178 509.006C131.178 508.506 131.276 508.1 131.473 507.79C131.67 507.475 131.933 507.229 132.263 507.051C132.592 506.873 132.956 506.74 133.354 506.653C133.755 506.562 134.159 506.49 134.564 506.437C135.094 506.369 135.524 506.318 135.854 506.284C136.187 506.246 136.429 506.184 136.581 506.097C136.736 506.009 136.814 505.858 136.814 505.642V505.597C136.814 505.036 136.661 504.6 136.354 504.29C136.051 503.979 135.59 503.824 134.973 503.824C134.333 503.824 133.831 503.964 133.467 504.244C133.104 504.525 132.848 504.824 132.7 505.142L131.428 504.687C131.655 504.157 131.958 503.744 132.337 503.449C132.719 503.15 133.136 502.941 133.587 502.824C134.041 502.703 134.488 502.642 134.928 502.642C135.208 502.642 135.53 502.676 135.893 502.744C136.261 502.809 136.615 502.943 136.956 503.148C137.301 503.352 137.587 503.661 137.814 504.074C138.041 504.487 138.155 505.04 138.155 505.733V511.483H136.814V510.301H136.746C136.655 510.49 136.503 510.693 136.291 510.909C136.079 511.125 135.797 511.309 135.445 511.46C135.092 511.612 134.662 511.687 134.155 511.687ZM134.359 510.483C134.89 510.483 135.337 510.379 135.7 510.17C136.068 509.962 136.344 509.693 136.53 509.364C136.719 509.034 136.814 508.687 136.814 508.324V507.097C136.757 507.165 136.632 507.227 136.439 507.284C136.25 507.337 136.03 507.384 135.78 507.426C135.534 507.464 135.293 507.498 135.058 507.528C134.827 507.555 134.64 507.578 134.496 507.597C134.147 507.642 133.821 507.716 133.518 507.818C133.219 507.917 132.977 508.066 132.791 508.267C132.609 508.464 132.518 508.733 132.518 509.074C132.518 509.54 132.691 509.892 133.036 510.131C133.384 510.365 133.825 510.483 134.359 510.483ZM144.148 511.665C143.33 511.665 142.625 511.472 142.034 511.085C141.443 510.699 140.989 510.167 140.67 509.489C140.352 508.811 140.193 508.036 140.193 507.165C140.193 506.278 140.356 505.496 140.682 504.818C141.011 504.136 141.47 503.604 142.057 503.222C142.648 502.835 143.337 502.642 144.125 502.642C144.739 502.642 145.292 502.756 145.784 502.983C146.277 503.21 146.68 503.528 146.994 503.937C147.309 504.347 147.504 504.824 147.58 505.369H146.239C146.136 504.972 145.909 504.619 145.557 504.312C145.208 504.002 144.739 503.847 144.148 503.847C143.625 503.847 143.167 503.983 142.773 504.256C142.383 504.525 142.078 504.905 141.858 505.398C141.642 505.886 141.534 506.46 141.534 507.119C141.534 507.794 141.64 508.381 141.852 508.881C142.068 509.381 142.371 509.769 142.761 510.045C143.155 510.322 143.617 510.46 144.148 510.46C144.496 510.46 144.812 510.4 145.097 510.278C145.381 510.157 145.621 509.983 145.818 509.756C146.015 509.528 146.155 509.256 146.239 508.937H147.58C147.504 509.453 147.316 509.917 147.017 510.33C146.722 510.739 146.33 511.064 145.841 511.307C145.356 511.545 144.792 511.665 144.148 511.665ZM153.335 502.756V503.892H148.812V502.756H153.335ZM150.131 500.665H151.472V508.983C151.472 509.362 151.527 509.646 151.636 509.835C151.75 510.021 151.894 510.146 152.068 510.21C152.246 510.271 152.434 510.301 152.631 510.301C152.778 510.301 152.9 510.294 152.994 510.278C153.089 510.259 153.165 510.244 153.222 510.233L153.494 511.437C153.403 511.472 153.277 511.506 153.114 511.54C152.951 511.578 152.744 511.597 152.494 511.597C152.116 511.597 151.744 511.515 151.381 511.352C151.021 511.189 150.722 510.941 150.483 510.608C150.248 510.275 150.131 509.854 150.131 509.347V500.665ZM161.378 504.71L160.173 505.051C160.098 504.85 159.986 504.655 159.838 504.466C159.694 504.273 159.497 504.114 159.247 503.989C158.997 503.864 158.677 503.801 158.287 503.801C157.753 503.801 157.308 503.924 156.952 504.17C156.599 504.413 156.423 504.722 156.423 505.097C156.423 505.43 156.545 505.693 156.787 505.886C157.029 506.08 157.408 506.24 157.923 506.369L159.219 506.687C159.999 506.877 160.58 507.167 160.963 507.557C161.346 507.943 161.537 508.441 161.537 509.051C161.537 509.551 161.393 509.998 161.105 510.392C160.821 510.786 160.423 511.097 159.912 511.324C159.401 511.551 158.806 511.665 158.128 511.665C157.238 511.665 156.501 511.472 155.918 511.085C155.334 510.699 154.965 510.134 154.81 509.392L156.082 509.074C156.204 509.544 156.433 509.896 156.77 510.131C157.111 510.365 157.556 510.483 158.105 510.483C158.73 510.483 159.226 510.35 159.594 510.085C159.965 509.816 160.151 509.494 160.151 509.119C160.151 508.816 160.045 508.562 159.832 508.358C159.62 508.15 159.295 507.994 158.855 507.892L157.401 507.551C156.601 507.362 156.014 507.068 155.639 506.67C155.268 506.269 155.082 505.767 155.082 505.165C155.082 504.672 155.221 504.237 155.497 503.858C155.777 503.479 156.158 503.182 156.639 502.966C157.124 502.75 157.673 502.642 158.287 502.642C159.151 502.642 159.829 502.831 160.321 503.21C160.817 503.589 161.17 504.089 161.378 504.71Z" fill="#CDCDCD"/>
<path d="M61.4091 909V897.364H65.3409C66.2538 897.364 67 897.528 67.5795 897.858C68.1629 898.184 68.5947 898.625 68.875 899.182C69.1553 899.739 69.2955 900.36 69.2955 901.045C69.2955 901.731 69.1553 902.354 68.875 902.915C68.5985 903.475 68.1705 903.922 67.5909 904.256C67.0114 904.585 66.2689 904.75 65.3636 904.75H62.5455V903.5H65.3182C65.9432 903.5 66.4451 903.392 66.8239 903.176C67.2027 902.96 67.4773 902.669 67.6477 902.301C67.822 901.93 67.9091 901.511 67.9091 901.045C67.9091 900.58 67.822 900.163 67.6477 899.795C67.4773 899.428 67.2008 899.14 66.8182 898.932C66.4356 898.72 65.928 898.614 65.2955 898.614H62.8182V909H61.4091ZM71.3835 909V900.273H72.679V901.591H72.7699C72.929 901.159 73.2169 900.809 73.6335 900.54C74.0502 900.271 74.5199 900.136 75.0426 900.136C75.1411 900.136 75.2642 900.138 75.4119 900.142C75.5597 900.146 75.6714 900.152 75.7472 900.159V901.523C75.7017 901.511 75.5975 901.494 75.4347 901.472C75.2756 901.445 75.107 901.432 74.929 901.432C74.5047 901.432 74.1259 901.521 73.7926 901.699C73.4631 901.873 73.2017 902.116 73.0085 902.426C72.8191 902.733 72.7244 903.083 72.7244 903.477V909H71.3835ZM77.3366 909V900.273H78.6776V909H77.3366ZM78.0185 898.818C77.7571 898.818 77.5317 898.729 77.3423 898.551C77.1567 898.373 77.0639 898.159 77.0639 897.909C77.0639 897.659 77.1567 897.445 77.3423 897.267C77.5317 897.089 77.7571 897 78.0185 897C78.2798 897 78.5033 897.089 78.6889 897.267C78.8783 897.445 78.973 897.659 78.973 897.909C78.973 898.159 78.8783 898.373 78.6889 898.551C78.5033 898.729 78.2798 898.818 78.0185 898.818ZM88.2699 900.273L85.0426 909H83.679L80.4517 900.273H81.9062L84.3153 907.227H84.4062L86.8153 900.273H88.2699ZM92.3423 909.205C91.7893 909.205 91.2874 909.1 90.8366 908.892C90.3859 908.68 90.0279 908.375 89.7628 907.977C89.4976 907.576 89.3651 907.091 89.3651 906.523C89.3651 906.023 89.4635 905.617 89.6605 905.307C89.8575 904.992 90.1207 904.746 90.4503 904.568C90.7798 904.39 91.1435 904.258 91.5412 904.17C91.9427 904.08 92.3461 904.008 92.7514 903.955C93.2817 903.886 93.7116 903.835 94.0412 903.801C94.3745 903.763 94.617 903.701 94.7685 903.614C94.9238 903.527 95.0014 903.375 95.0014 903.159V903.114C95.0014 902.553 94.848 902.117 94.5412 901.807C94.2382 901.496 93.7779 901.341 93.1605 901.341C92.5204 901.341 92.0185 901.481 91.6548 901.761C91.2912 902.042 91.0355 902.341 90.8878 902.659L89.6151 902.205C89.8423 901.674 90.1454 901.261 90.5241 900.966C90.9067 900.667 91.3234 900.458 91.7741 900.341C92.2287 900.22 92.6757 900.159 93.1151 900.159C93.3954 900.159 93.7173 900.193 94.081 900.261C94.4484 900.326 94.8026 900.46 95.1435 900.665C95.4882 900.869 95.7741 901.178 96.0014 901.591C96.2287 902.004 96.3423 902.557 96.3423 903.25V909H95.0014V907.818H94.9332C94.8423 908.008 94.6908 908.21 94.4787 908.426C94.2666 908.642 93.9844 908.826 93.6321 908.977C93.2798 909.129 92.8499 909.205 92.3423 909.205ZM92.5469 908C93.0772 908 93.5241 907.896 93.8878 907.688C94.2552 907.479 94.5317 907.21 94.7173 906.881C94.9067 906.551 95.0014 906.205 95.0014 905.841V904.614C94.9446 904.682 94.8196 904.744 94.6264 904.801C94.437 904.854 94.2173 904.902 93.9673 904.943C93.7211 904.981 93.4806 905.015 93.2457 905.045C93.0147 905.072 92.8272 905.095 92.6832 905.114C92.3348 905.159 92.009 905.233 91.706 905.335C91.4067 905.434 91.1643 905.583 90.9787 905.784C90.7969 905.981 90.706 906.25 90.706 906.591C90.706 907.057 90.8783 907.409 91.223 907.648C91.5715 907.883 92.0128 908 92.5469 908ZM102.335 909.182C101.517 909.182 100.813 908.989 100.222 908.602C99.6307 908.216 99.1761 907.684 98.858 907.006C98.5398 906.328 98.3807 905.553 98.3807 904.682C98.3807 903.795 98.5436 903.013 98.8693 902.335C99.1989 901.653 99.6572 901.121 100.244 900.739C100.835 900.352 101.525 900.159 102.312 900.159C102.926 900.159 103.479 900.273 103.972 900.5C104.464 900.727 104.867 901.045 105.182 901.455C105.496 901.864 105.691 902.341 105.767 902.886H104.426C104.324 902.489 104.097 902.136 103.744 901.83C103.396 901.519 102.926 901.364 102.335 901.364C101.813 901.364 101.354 901.5 100.96 901.773C100.57 902.042 100.265 902.422 100.045 902.915C99.8295 903.403 99.7216 903.977 99.7216 904.636C99.7216 905.311 99.8277 905.898 100.04 906.398C100.256 906.898 100.559 907.286 100.949 907.562C101.343 907.839 101.805 907.977 102.335 907.977C102.684 907.977 103 907.917 103.284 907.795C103.568 907.674 103.809 907.5 104.006 907.273C104.203 907.045 104.343 906.773 104.426 906.455H105.767C105.691 906.97 105.504 907.434 105.205 907.847C104.909 908.256 104.517 908.581 104.028 908.824C103.544 909.062 102.979 909.182 102.335 909.182ZM108.591 912.273C108.364 912.273 108.161 912.254 107.983 912.216C107.805 912.182 107.682 912.148 107.614 912.114L107.955 910.932C108.28 911.015 108.568 911.045 108.818 911.023C109.068 911 109.29 910.888 109.483 910.688C109.68 910.491 109.86 910.17 110.023 909.727L110.273 909.045L107.045 900.273H108.5L110.909 907.227H111L113.409 900.273H114.864L111.159 910.273C110.992 910.723 110.786 911.097 110.54 911.392C110.294 911.691 110.008 911.913 109.682 912.057C109.36 912.201 108.996 912.273 108.591 912.273ZM121.315 909V897.364H125.247C126.16 897.364 126.906 897.528 127.486 897.858C128.069 898.184 128.501 898.625 128.781 899.182C129.062 899.739 129.202 900.36 129.202 901.045C129.202 901.731 129.062 902.354 128.781 902.915C128.505 903.475 128.077 903.922 127.497 904.256C126.918 904.585 126.175 904.75 125.27 904.75H122.452V903.5H125.224C125.849 903.5 126.351 903.392 126.73 903.176C127.109 902.96 127.384 902.669 127.554 902.301C127.728 901.93 127.815 901.511 127.815 901.045C127.815 900.58 127.728 900.163 127.554 899.795C127.384 899.428 127.107 899.14 126.724 898.932C126.342 898.72 125.834 898.614 125.202 898.614H122.724V909H121.315ZM134.741 909.182C133.954 909.182 133.262 908.994 132.668 908.619C132.077 908.244 131.615 907.72 131.281 907.045C130.952 906.371 130.787 905.583 130.787 904.682C130.787 903.773 130.952 902.979 131.281 902.301C131.615 901.623 132.077 901.097 132.668 900.722C133.262 900.347 133.954 900.159 134.741 900.159C135.529 900.159 136.219 900.347 136.81 900.722C137.404 901.097 137.866 901.623 138.196 902.301C138.529 902.979 138.696 903.773 138.696 904.682C138.696 905.583 138.529 906.371 138.196 907.045C137.866 907.72 137.404 908.244 136.81 908.619C136.219 908.994 135.529 909.182 134.741 909.182ZM134.741 907.977C135.34 907.977 135.832 907.824 136.219 907.517C136.605 907.21 136.891 906.807 137.077 906.307C137.262 905.807 137.355 905.265 137.355 904.682C137.355 904.098 137.262 903.555 137.077 903.051C136.891 902.547 136.605 902.14 136.219 901.83C135.832 901.519 135.34 901.364 134.741 901.364C134.143 901.364 133.651 901.519 133.264 901.83C132.878 902.14 132.592 902.547 132.406 903.051C132.221 903.555 132.128 904.098 132.128 904.682C132.128 905.265 132.221 905.807 132.406 906.307C132.592 906.807 132.878 907.21 133.264 907.517C133.651 907.824 134.143 907.977 134.741 907.977ZM142.084 897.364V909H140.743V897.364H142.084ZM144.54 909V900.273H145.881V909H144.54ZM145.222 898.818C144.96 898.818 144.735 898.729 144.545 898.551C144.36 898.373 144.267 898.159 144.267 897.909C144.267 897.659 144.36 897.445 144.545 897.267C144.735 897.089 144.96 897 145.222 897C145.483 897 145.706 897.089 145.892 897.267C146.081 897.445 146.176 897.659 146.176 897.909C146.176 898.159 146.081 898.373 145.892 898.551C145.706 898.729 145.483 898.818 145.222 898.818ZM151.882 909.182C151.064 909.182 150.359 908.989 149.768 908.602C149.178 908.216 148.723 907.684 148.405 907.006C148.087 906.328 147.928 905.553 147.928 904.682C147.928 903.795 148.09 903.013 148.416 902.335C148.746 901.653 149.204 901.121 149.791 900.739C150.382 900.352 151.071 900.159 151.859 900.159C152.473 900.159 153.026 900.273 153.518 900.5C154.011 900.727 154.414 901.045 154.729 901.455C155.043 901.864 155.238 902.341 155.314 902.886H153.973C153.871 902.489 153.643 902.136 153.291 901.83C152.943 901.519 152.473 901.364 151.882 901.364C151.359 901.364 150.901 901.5 150.507 901.773C150.117 902.042 149.812 902.422 149.592 902.915C149.376 903.403 149.268 903.977 149.268 904.636C149.268 905.311 149.375 905.898 149.587 906.398C149.803 906.898 150.106 907.286 150.496 907.562C150.89 907.839 151.352 907.977 151.882 907.977C152.231 907.977 152.547 907.917 152.831 907.795C153.115 907.674 153.356 907.5 153.553 907.273C153.75 907.045 153.89 906.773 153.973 906.455H155.314C155.238 906.97 155.051 907.434 154.751 907.847C154.456 908.256 154.064 908.581 153.575 908.824C153.09 909.062 152.526 909.182 151.882 909.182ZM158.138 912.273C157.911 912.273 157.708 912.254 157.53 912.216C157.352 912.182 157.229 912.148 157.161 912.114L157.501 910.932C157.827 911.015 158.115 911.045 158.365 911.023C158.615 911 158.837 910.888 159.03 910.688C159.227 910.491 159.407 910.17 159.57 909.727L159.82 909.045L156.592 900.273H158.047L160.456 907.227H160.547L162.956 900.273H164.411L160.706 910.273C160.539 910.723 160.333 911.097 160.087 911.392C159.84 911.691 159.554 911.913 159.229 912.057C158.907 912.201 158.543 912.273 158.138 912.273Z" fill="#A8A8A8"/>
<path d="M61.4091 948V936.364H62.8182V946.75H68.2273V948H61.4091ZM73.8864 948.182C73.0455 948.182 72.3201 947.996 71.7102 947.625C71.1042 947.25 70.6364 946.727 70.3068 946.057C69.9811 945.383 69.8182 944.598 69.8182 943.705C69.8182 942.811 69.9811 942.023 70.3068 941.341C70.6364 940.655 71.0947 940.121 71.6818 939.739C72.2727 939.352 72.9621 939.159 73.75 939.159C74.2045 939.159 74.6534 939.235 75.0966 939.386C75.5398 939.538 75.9432 939.784 76.3068 940.125C76.6705 940.462 76.9602 940.909 77.1761 941.466C77.392 942.023 77.5 942.708 77.5 943.523V944.091H70.7727V942.932H76.1364C76.1364 942.439 76.0379 942 75.8409 941.614C75.6477 941.227 75.3712 940.922 75.0114 940.699C74.6553 940.475 74.2348 940.364 73.75 940.364C73.2159 940.364 72.7538 940.496 72.3636 940.761C71.9773 941.023 71.6799 941.364 71.4716 941.784C71.2633 942.205 71.1591 942.655 71.1591 943.136V943.909C71.1591 944.568 71.2727 945.127 71.5 945.585C71.7311 946.04 72.0511 946.386 72.4602 946.625C72.8693 946.86 73.3447 946.977 73.8864 946.977C74.2386 946.977 74.5568 946.928 74.8409 946.83C75.1288 946.727 75.3769 946.576 75.5852 946.375C75.7936 946.17 75.9545 945.917 76.0682 945.614L77.3636 945.977C77.2273 946.417 76.9981 946.803 76.6761 947.136C76.3542 947.466 75.9564 947.723 75.483 947.909C75.0095 948.091 74.4773 948.182 73.8864 948.182ZM83.0625 951.455C82.4148 951.455 81.858 951.371 81.392 951.205C80.9261 951.042 80.5379 950.826 80.2273 950.557C79.9205 950.292 79.6761 950.008 79.4943 949.705L80.5625 948.955C80.6837 949.114 80.8371 949.295 81.0227 949.5C81.2083 949.708 81.4621 949.888 81.7841 950.04C82.1098 950.195 82.536 950.273 83.0625 950.273C83.767 950.273 84.3485 950.102 84.8068 949.761C85.2652 949.42 85.4943 948.886 85.4943 948.159V946.386H85.3807C85.2822 946.545 85.142 946.742 84.9602 946.977C84.7822 947.208 84.5246 947.415 84.1875 947.597C83.8542 947.775 83.4034 947.864 82.8352 947.864C82.1307 947.864 81.4981 947.697 80.9375 947.364C80.3807 947.03 79.9394 946.545 79.6136 945.909C79.2917 945.273 79.1307 944.5 79.1307 943.591C79.1307 942.697 79.2879 941.919 79.6023 941.256C79.9167 940.589 80.3542 940.074 80.9148 939.71C81.4754 939.343 82.1231 939.159 82.858 939.159C83.4261 939.159 83.8769 939.254 84.2102 939.443C84.5473 939.629 84.8049 939.841 84.983 940.08C85.1648 940.314 85.3049 940.508 85.4034 940.659H85.5398V939.273H86.8352V948.25C86.8352 949 86.6648 949.61 86.3239 950.08C85.9867 950.553 85.5322 950.9 84.9602 951.119C84.392 951.343 83.7595 951.455 83.0625 951.455ZM83.017 946.659C83.5549 946.659 84.0095 946.536 84.3807 946.29C84.7519 946.044 85.0341 945.689 85.2273 945.227C85.4205 944.765 85.517 944.212 85.517 943.568C85.517 942.939 85.4223 942.384 85.233 941.903C85.0436 941.422 84.7633 941.045 84.392 940.773C84.0208 940.5 83.5625 940.364 83.017 940.364C82.4489 940.364 81.9754 940.508 81.5966 940.795C81.2216 941.083 80.9394 941.47 80.75 941.955C80.5644 942.439 80.4716 942.977 80.4716 943.568C80.4716 944.174 80.5663 944.71 80.7557 945.176C80.9489 945.638 81.233 946.002 81.608 946.267C81.9867 946.528 82.4564 946.659 83.017 946.659ZM91.858 948.205C91.3049 948.205 90.803 948.1 90.3523 947.892C89.9015 947.68 89.5436 947.375 89.2784 946.977C89.0133 946.576 88.8807 946.091 88.8807 945.523C88.8807 945.023 88.9792 944.617 89.1761 944.307C89.3731 943.992 89.6364 943.746 89.9659 943.568C90.2955 943.39 90.6591 943.258 91.0568 943.17C91.4583 943.08 91.8617 943.008 92.267 942.955C92.7973 942.886 93.2273 942.835 93.5568 942.801C93.8902 942.763 94.1326 942.701 94.2841 942.614C94.4394 942.527 94.517 942.375 94.517 942.159V942.114C94.517 941.553 94.3636 941.117 94.0568 940.807C93.7538 940.496 93.2936 940.341 92.6761 940.341C92.036 940.341 91.5341 940.481 91.1705 940.761C90.8068 941.042 90.5511 941.341 90.4034 941.659L89.1307 941.205C89.358 940.674 89.661 940.261 90.0398 939.966C90.4223 939.667 90.839 939.458 91.2898 939.341C91.7443 939.22 92.1913 939.159 92.6307 939.159C92.911 939.159 93.233 939.193 93.5966 939.261C93.964 939.326 94.3182 939.46 94.6591 939.665C95.0038 939.869 95.2898 940.178 95.517 940.591C95.7443 941.004 95.858 941.557 95.858 942.25V948H94.517V946.818H94.4489C94.358 947.008 94.2064 947.21 93.9943 947.426C93.7822 947.642 93.5 947.826 93.1477 947.977C92.7955 948.129 92.3655 948.205 91.858 948.205ZM92.0625 947C92.5928 947 93.0398 946.896 93.4034 946.688C93.7708 946.479 94.0473 946.21 94.233 945.881C94.4223 945.551 94.517 945.205 94.517 944.841V943.614C94.4602 943.682 94.3352 943.744 94.142 943.801C93.9527 943.854 93.733 943.902 93.483 943.943C93.2367 943.981 92.9962 944.015 92.7614 944.045C92.5303 944.072 92.3428 944.095 92.1989 944.114C91.8504 944.159 91.5246 944.233 91.2216 944.335C90.9223 944.434 90.6799 944.583 90.4943 944.784C90.3125 944.981 90.2216 945.25 90.2216 945.591C90.2216 946.057 90.3939 946.409 90.7386 946.648C91.0871 946.883 91.5284 947 92.0625 947ZM99.6463 936.364V948H98.3054V936.364H99.6463ZM107.943 942.75V948H106.602V939.273H107.898V940.636H108.011C108.216 940.193 108.527 939.837 108.943 939.568C109.36 939.295 109.898 939.159 110.557 939.159C111.148 939.159 111.665 939.28 112.108 939.523C112.551 939.761 112.896 940.125 113.142 940.614C113.388 941.098 113.511 941.712 113.511 942.455V948H112.17V942.545C112.17 941.86 111.992 941.326 111.636 940.943C111.28 940.557 110.792 940.364 110.17 940.364C109.742 940.364 109.36 940.456 109.023 940.642C108.689 940.828 108.426 941.098 108.233 941.455C108.04 941.811 107.943 942.242 107.943 942.75ZM119.507 948.182C118.719 948.182 118.028 947.994 117.433 947.619C116.842 947.244 116.38 946.72 116.047 946.045C115.717 945.371 115.553 944.583 115.553 943.682C115.553 942.773 115.717 941.979 116.047 941.301C116.38 940.623 116.842 940.097 117.433 939.722C118.028 939.347 118.719 939.159 119.507 939.159C120.295 939.159 120.984 939.347 121.575 939.722C122.17 940.097 122.632 940.623 122.962 941.301C123.295 941.979 123.462 942.773 123.462 943.682C123.462 944.583 123.295 945.371 122.962 946.045C122.632 946.72 122.17 947.244 121.575 947.619C120.984 947.994 120.295 948.182 119.507 948.182ZM119.507 946.977C120.106 946.977 120.598 946.824 120.984 946.517C121.371 946.21 121.657 945.807 121.842 945.307C122.028 944.807 122.121 944.265 122.121 943.682C122.121 943.098 122.028 942.555 121.842 942.051C121.657 941.547 121.371 941.14 120.984 940.83C120.598 940.519 120.106 940.364 119.507 940.364C118.909 940.364 118.416 940.519 118.03 940.83C117.643 941.14 117.357 941.547 117.172 942.051C116.986 942.555 116.893 943.098 116.893 943.682C116.893 944.265 116.986 944.807 117.172 945.307C117.357 945.807 117.643 946.21 118.03 946.517C118.416 946.824 118.909 946.977 119.507 946.977ZM129.304 939.273V940.409H124.781V939.273H129.304ZM126.099 937.182H127.44V945.5C127.44 945.879 127.495 946.163 127.605 946.352C127.719 946.538 127.863 946.663 128.037 946.727C128.215 946.788 128.402 946.818 128.599 946.818C128.747 946.818 128.868 946.811 128.963 946.795C129.058 946.777 129.134 946.761 129.19 946.75L129.463 947.955C129.372 947.989 129.245 948.023 129.082 948.057C128.92 948.095 128.713 948.114 128.463 948.114C128.084 948.114 127.713 948.032 127.349 947.869C126.99 947.706 126.69 947.458 126.452 947.125C126.217 946.792 126.099 946.371 126.099 945.864V937.182ZM131.321 948V939.273H132.662V948H131.321ZM132.003 937.818C131.741 937.818 131.516 937.729 131.327 937.551C131.141 937.373 131.048 937.159 131.048 936.909C131.048 936.659 131.141 936.445 131.327 936.267C131.516 936.089 131.741 936 132.003 936C132.264 936 132.488 936.089 132.673 936.267C132.863 936.445 132.957 936.659 132.957 936.909C132.957 937.159 132.863 937.373 132.673 937.551C132.488 937.729 132.264 937.818 132.003 937.818ZM138.663 948.182C137.845 948.182 137.141 947.989 136.55 947.602C135.959 947.216 135.504 946.684 135.186 946.006C134.868 945.328 134.709 944.553 134.709 943.682C134.709 942.795 134.872 942.013 135.197 941.335C135.527 940.653 135.985 940.121 136.572 939.739C137.163 939.352 137.853 939.159 138.641 939.159C139.254 939.159 139.807 939.273 140.3 939.5C140.792 939.727 141.196 940.045 141.51 940.455C141.824 940.864 142.019 941.341 142.095 941.886H140.754C140.652 941.489 140.425 941.136 140.072 940.83C139.724 940.519 139.254 940.364 138.663 940.364C138.141 940.364 137.682 940.5 137.288 940.773C136.898 941.042 136.593 941.422 136.374 941.915C136.158 942.403 136.05 942.977 136.05 943.636C136.05 944.311 136.156 944.898 136.368 945.398C136.584 945.898 136.887 946.286 137.277 946.562C137.671 946.839 138.133 946.977 138.663 946.977C139.012 946.977 139.328 946.917 139.612 946.795C139.896 946.674 140.137 946.5 140.334 946.273C140.531 946.045 140.671 945.773 140.754 945.455H142.095C142.019 945.97 141.832 946.434 141.533 946.847C141.237 947.256 140.845 947.581 140.357 947.824C139.872 948.062 139.307 948.182 138.663 948.182ZM147.714 948.182C146.874 948.182 146.148 947.996 145.538 947.625C144.932 947.25 144.464 946.727 144.135 946.057C143.809 945.383 143.646 944.598 143.646 943.705C143.646 942.811 143.809 942.023 144.135 941.341C144.464 940.655 144.923 940.121 145.51 939.739C146.101 939.352 146.79 939.159 147.578 939.159C148.033 939.159 148.482 939.235 148.925 939.386C149.368 939.538 149.771 939.784 150.135 940.125C150.499 940.462 150.788 940.909 151.004 941.466C151.22 942.023 151.328 942.708 151.328 943.523V944.091H144.601V942.932H149.964C149.964 942.439 149.866 942 149.669 941.614C149.476 941.227 149.199 940.922 148.839 940.699C148.483 940.475 148.063 940.364 147.578 940.364C147.044 940.364 146.582 940.496 146.192 940.761C145.805 941.023 145.508 941.364 145.3 941.784C145.091 942.205 144.987 942.655 144.987 943.136V943.909C144.987 944.568 145.101 945.127 145.328 945.585C145.559 946.04 145.879 946.386 146.288 946.625C146.697 946.86 147.173 946.977 147.714 946.977C148.067 946.977 148.385 946.928 148.669 946.83C148.957 946.727 149.205 946.576 149.413 946.375C149.622 946.17 149.783 945.917 149.896 945.614L151.192 945.977C151.055 946.417 150.826 946.803 150.504 947.136C150.182 947.466 149.785 947.723 149.311 947.909C148.838 948.091 148.305 948.182 147.714 948.182Z" fill="#A8A8A8"/>
</g>
<defs>
<filter id="filter0_d_45_2208" x="-4" y="-4" width="240" height="1032" filterUnits="userSpaceOnUse" color-interpolation-filters="sRGB">
<feFlood flood-opacity="0" result="BackgroundImageFix"/>
<feColorMatrix in="SourceAlpha" type="matrix" values="0 0 0 0 0 0 0 0 0 0 0 0 0 0 0 0 0 0 127 0" result="hardAlpha"/>
<feOffset/>
<feGaussianBlur stdDeviation="2"/>
<feColorMatrix type="matrix" values="0 0 0 0 0 0 0 0 0 0 0 0 0 0 0 0 0 0 0.1 0"/>
<feBlend mode="normal" in2="BackgroundImageFix" result="effect1_dropShadow_45_2208"/>
<feBlend mode="normal" in="SourceGraphic" in2="effect1_dropShadow_45_2208" result="shape"/>
</filter>
</defs>
</svg>
