<svg width="30" height="31" viewBox="0 0 30 31" fill="none" xmlns="http://www.w3.org/2000/svg">
<mask id="mask0_307434_2598" style="mask-type:alpha" maskUnits="userSpaceOnUse" x="-1" y="0" width="31" height="31">
<rect x="-0.00158691" y="0.98291" width="30" height="30" fill="#D9D9D9"/>
</mask>
<g mask="url(#mask0_307434_2598)">
<path d="M14.9984 23.4829C13.8317 23.4829 12.7172 23.6652 11.6547 24.0298C10.5922 24.3944 9.62341 24.9412 8.74841 25.6704V25.9829H21.2484V25.6704C20.3734 24.9412 19.4047 24.3944 18.3422 24.0298C17.2797 23.6652 16.1651 23.4829 14.9984 23.4829ZM6.24841 24.5454C7.37341 23.4412 8.68071 22.5715 10.1703 21.936C11.6599 21.3006 13.2692 20.9829 14.9984 20.9829C16.7276 20.9829 18.337 21.3006 19.8265 21.936C21.3161 22.5715 22.6234 23.4412 23.7484 24.5454V8.48291H6.24841V24.5454ZM14.9984 18.4829C13.7901 18.4829 12.7588 18.0558 11.9047 17.2017C11.0505 16.3475 10.6234 15.3162 10.6234 14.1079C10.6234 12.8996 11.0505 11.8683 11.9047 11.0142C12.7588 10.16 13.7901 9.73291 14.9984 9.73291C16.2067 9.73291 17.238 10.16 18.0922 11.0142C18.9463 11.8683 19.3734 12.8996 19.3734 14.1079C19.3734 15.3162 18.9463 16.3475 18.0922 17.2017C17.238 18.0558 16.2067 18.4829 14.9984 18.4829ZM14.9984 15.9829C15.5192 15.9829 15.962 15.8006 16.3265 15.436C16.6911 15.0715 16.8734 14.6287 16.8734 14.1079C16.8734 13.5871 16.6911 13.1444 16.3265 12.7798C15.962 12.4152 15.5192 12.2329 14.9984 12.2329C14.4776 12.2329 14.0349 12.4152 13.6703 12.7798C13.3057 13.1444 13.1234 13.5871 13.1234 14.1079C13.1234 14.6287 13.3057 15.0715 13.6703 15.436C14.0349 15.8006 14.4776 15.9829 14.9984 15.9829ZM6.24841 28.4829C5.56091 28.4829 4.97237 28.2381 4.48279 27.7485C3.9932 27.259 3.74841 26.6704 3.74841 25.9829V8.48291C3.74841 7.79541 3.9932 7.20687 4.48279 6.71729C4.97237 6.2277 5.56091 5.98291 6.24841 5.98291H7.49841V3.48291H9.99841V5.98291H19.9984V3.48291H22.4984V5.98291H23.7484C24.4359 5.98291 25.0245 6.2277 25.514 6.71729C26.0036 7.20687 26.2484 7.79541 26.2484 8.48291V25.9829C26.2484 26.6704 26.0036 27.259 25.514 27.7485C25.0245 28.2381 24.4359 28.4829 23.7484 28.4829H6.24841Z" fill="#CDCDCD"/>
</g>
</svg>
